<svg width="432" height="60" viewBox="0 0 432 60" fill="none" xmlns="http://www.w3.org/2000/svg">
<path d="M112.561 34.6841C112.736 34.8524 112.936 34.9925 113.153 35.0993C113.364 35.2003 113.563 35.3218 113.749 35.4621C113.941 35.6282 114.039 35.8772 114.013 36.1294C114.013 36.4 113.826 36.6645 113.451 36.9289C113.014 37.2183 112.534 37.4372 112.029 37.5778C111.42 37.7537 110.793 37.857 110.159 37.8853C109.517 37.9233 108.874 37.8473 108.258 37.6608C107.672 37.4857 107.143 37.159 106.723 36.7137C106.268 36.1996 106.012 35.5397 106.001 34.8533H105.98V29.601C105.964 29.0321 105.946 28.494 105.924 27.9835C105.913 27.5361 105.857 27.091 105.755 26.6551C105.686 26.3276 105.541 26.0211 105.332 25.7603C105.128 25.5361 104.835 25.4153 104.533 25.4312C104.26 25.4161 103.993 25.5204 103.802 25.7172C103.623 25.9122 103.482 26.1397 103.388 26.3876C103.288 26.64 103.224 26.9049 103.197 27.1748C103.171 27.3932 103.156 27.6129 103.154 27.8329V33.8108C103.152 34.056 103.221 34.2966 103.354 34.5027C103.493 34.7129 103.689 34.8792 103.919 34.9824H103.94C104.123 35.0495 104.295 35.1427 104.45 35.2592C104.584 35.3656 104.702 35.491 104.8 35.6313C104.911 35.7974 104.967 35.9943 104.96 36.194C104.972 36.5407 104.812 36.8709 104.533 37.0765C104.201 37.3203 103.821 37.4911 103.418 37.5778C102.899 37.6999 102.37 37.778 101.837 37.8115C101.241 37.8545 100.627 37.8761 99.9942 37.8761C99.3616 37.8761 98.6952 37.8545 98.0932 37.8115C97.5563 37.7787 97.0232 37.7005 96.4994 37.5778C96.1024 37.4938 95.729 37.3226 95.4061 37.0765C95.1386 36.8636 94.9881 36.536 95.0007 36.194C94.9974 36.0233 95.0387 35.8548 95.1205 35.7051C95.1927 35.5709 95.2849 35.4486 95.3938 35.3422C95.4936 35.25 95.6051 35.1714 95.7255 35.1085C95.8391 35.0531 95.9313 35.0101 96.0019 34.9824C96.1872 34.9213 96.3549 34.8157 96.4902 34.6749C96.7058 34.4436 96.8264 34.1395 96.828 33.8231V26.2184C96.8588 25.9207 96.7629 25.6238 96.5639 25.4005C96.3855 25.2351 96.185 25.0953 95.9681 24.9853C95.7622 24.8786 95.5641 24.7574 95.3754 24.6225C95.1826 24.4612 95.0825 24.2146 95.1082 23.9644C95.1258 23.5462 95.3429 23.1618 95.6917 22.9312C96.1362 22.5977 96.6279 22.3324 97.1505 22.144C97.7595 21.918 98.3889 21.7512 99.0299 21.6458C99.6383 21.5374 100.255 21.4798 100.873 21.4736C101.281 21.4596 101.69 21.5105 102.082 21.6243C102.332 21.6987 102.564 21.8209 102.767 21.9841C102.912 22.1086 103.019 22.2718 103.074 22.4546C103.12 22.599 103.145 22.7491 103.148 22.9004C103.145 22.9513 103.174 22.9986 103.222 23.0173C103.264 23.0434 103.318 23.0434 103.36 23.0173C103.931 22.6403 104.551 22.3434 105.203 22.1347C105.948 21.8945 106.726 21.7761 107.509 21.7842C108.403 21.742 109.294 21.916 110.107 22.2916C110.707 22.597 111.205 23.0702 111.541 23.6538C111.873 24.2555 112.082 24.9172 112.155 25.6004C112.24 26.3528 112.282 27.1095 112.281 27.8667H112.303V33.8846C112.277 34.1751 112.37 34.4636 112.561 34.6841ZM129.522 31.4276C129.733 31.5923 129.904 31.8025 130.023 32.0426C130.202 32.4093 130.285 32.8156 130.265 33.2235C130.254 33.8538 130.066 34.4683 129.725 34.9978C129.33 35.6207 128.813 36.1564 128.205 36.5722C127.487 37.065 126.699 37.4456 125.867 37.7008C124.891 38.0014 123.873 38.1487 122.852 38.1374C121.717 38.145 120.592 37.92 119.547 37.4763C117.528 36.6292 115.915 35.0324 115.045 33.0205C114.153 30.9394 114.153 28.5825 115.045 26.5014C115.912 24.4845 117.525 22.8827 119.547 22.0333C120.592 21.5884 121.717 21.3624 122.852 21.3689C123.744 21.3729 124.633 21.4907 125.496 21.7196C126.365 21.9395 127.194 22.2943 127.953 22.7713C128.672 23.2224 129.285 23.8247 129.749 24.5364C130.214 25.2714 130.453 26.1267 130.437 26.9964C130.47 27.5601 130.329 28.1202 130.035 28.6016C129.76 28.9903 129.395 29.3068 128.972 29.5242C128.494 29.7738 127.988 29.9668 127.464 30.0992C126.899 30.2499 126.322 30.4252 125.732 30.6312C125.129 30.844 124.546 31.1116 123.991 31.4307C123.391 31.7725 122.868 32.2353 122.456 32.7899C122.378 32.8455 122.34 32.9422 122.36 33.0359C122.386 33.1313 122.466 33.2024 122.563 33.2173C122.872 33.3621 123.201 33.4585 123.54 33.5033C123.92 33.5543 124.304 33.5789 124.688 33.5771C125.164 33.579 125.635 33.4925 126.079 33.3219C126.509 33.1592 126.92 32.9531 127.308 32.7069C127.647 32.4937 127.969 32.2552 128.272 31.9934C128.548 31.7536 128.767 31.5537 128.92 31.3969C129.003 31.318 129.114 31.2766 129.228 31.2824C129.342 31.2882 129.448 31.3407 129.522 31.4276ZM122.852 24.4441C122.613 24.4563 122.378 24.5137 122.161 24.6133C121.852 24.7542 121.58 24.9647 121.365 25.2283C121.077 25.5792 120.853 25.9791 120.705 26.4091C120.504 27.0124 120.411 27.6462 120.429 28.2818C120.429 28.6939 120.429 29.0783 120.462 29.4411C120.481 29.7815 120.527 30.1199 120.601 30.4528C120.621 30.5735 120.721 30.6647 120.843 30.6742C120.965 30.6999 121.089 30.6439 121.15 30.5359C121.418 30.0548 121.734 29.6024 122.093 29.1859C122.456 28.7677 122.8 28.3649 123.125 27.9835C123.419 27.6425 123.691 27.2841 123.942 26.9103C124.145 26.6274 124.26 26.2901 124.271 25.9417C124.267 25.7775 124.234 25.6152 124.175 25.462C124.113 25.2863 124.024 25.1213 123.911 24.973C123.79 24.8201 123.638 24.6935 123.466 24.601C123.277 24.4983 123.066 24.4444 122.852 24.4441ZM140.654 35.0039C140.844 35.0699 141.023 35.1631 141.186 35.2807C141.32 35.3872 141.438 35.5125 141.536 35.6528C141.647 35.8189 141.703 36.0158 141.695 36.2155C141.706 36.5619 141.546 36.8913 141.269 37.0981C140.936 37.3418 140.556 37.5126 140.154 37.5993C139.63 37.722 139.097 37.8002 138.56 37.833C137.946 37.8761 137.332 37.8945 136.702 37.8945C136.072 37.8945 135.403 37.8761 134.801 37.833C134.268 37.8009 133.739 37.7228 133.219 37.5993C132.825 37.5149 132.455 37.3436 132.135 37.0981C131.868 36.8852 131.717 36.5575 131.73 36.2155C131.721 35.9975 131.781 35.7823 131.902 35.6005C132.003 35.4491 132.132 35.3186 132.283 35.2161C132.464 35.1068 132.656 35.0181 132.857 34.9517C133.065 34.8413 133.238 34.6752 133.358 34.472C133.476 34.2687 133.538 34.037 133.536 33.8016V26.24C133.567 25.9413 133.471 25.6434 133.272 25.4189C133.094 25.2587 132.898 25.1194 132.688 25.0038C132.482 24.8971 132.286 24.7726 132.102 24.6317C131.912 24.4647 131.813 24.2164 131.838 23.9644C131.855 23.5462 132.072 23.1618 132.421 22.9312C132.863 22.5987 133.354 22.3373 133.877 22.1563C134.484 21.9374 135.11 21.7727 135.747 21.6643C136.355 21.5576 136.972 21.5011 137.59 21.4951C137.877 21.4945 138.165 21.5161 138.449 21.5597C138.702 21.5945 138.946 21.6737 139.171 21.7934C139.372 21.9031 139.543 22.0604 139.669 22.2516C139.805 22.4705 139.873 22.7256 139.862 22.9835V33.8108C139.86 34.0606 139.934 34.3052 140.074 34.5119C140.217 34.7278 140.418 34.8985 140.654 35.0039ZM139.656 17.7835C139.657 18.1593 139.573 18.5303 139.411 18.869C139.249 19.2054 139.021 19.5056 138.741 19.7516C138.446 20.0065 138.108 20.2074 137.743 20.345C136.963 20.6451 136.1 20.6451 135.32 20.345C134.956 20.206 134.618 20.0053 134.322 19.7516C134.042 19.5056 133.814 19.2054 133.652 18.869C133.491 18.5301 133.408 18.159 133.41 17.7835C133.407 17.4108 133.49 17.0425 133.652 16.7072C133.811 16.3753 134.035 16.0784 134.31 15.8339C135.255 15.0138 136.573 14.7777 137.743 15.2189C138.109 15.3564 138.447 15.5584 138.741 15.8155C139.02 16.0578 139.248 16.3537 139.411 16.6857C139.576 17.0245 139.66 17.3972 139.656 17.7743V17.7835ZM159.983 22.0056C159.829 22.0502 159.677 22.1036 159.529 22.1655C159.319 22.2507 159.114 22.3472 158.915 22.4546C158.701 22.5704 158.496 22.7009 158.3 22.8451C158.101 22.9902 157.92 23.1585 157.76 23.3463C157.713 23.392 157.688 23.4563 157.692 23.522C157.696 23.5877 157.729 23.6482 157.781 23.6877C158.26 24.118 158.647 24.641 158.918 25.2252C159.179 25.7918 159.314 26.4091 159.311 27.0333C159.313 27.7776 159.123 28.5097 158.758 29.1582C158.362 29.8523 157.815 30.4483 157.158 30.9018C156.395 31.4301 155.547 31.8252 154.652 32.0703C153.58 32.3672 152.472 32.5101 151.36 32.4947C150.43 32.4961 149.503 32.393 148.596 32.1872C148.49 32.16 148.377 32.1826 148.289 32.2487C148.195 32.3115 148.133 32.4127 148.12 32.5254C148.093 32.7455 148.207 32.9587 148.406 33.0574C148.758 33.2324 149.148 33.32 149.542 33.3126C149.927 33.3403 150.314 33.3403 150.7 33.3126C151.062 33.285 151.424 33.2512 151.793 33.2081C152.161 33.165 152.558 33.1312 152.985 33.1097C153.411 33.0882 153.906 33.0943 154.449 33.1097C155.16 33.1513 155.863 33.2835 156.541 33.5033C157.184 33.7053 157.788 34.0174 158.325 34.4258C158.842 34.8289 159.272 35.3319 159.59 35.9049C159.927 36.5426 160.105 37.2529 160.106 37.9745C160.17 38.7061 160.065 39.4425 159.799 40.127C159.533 40.7832 159.139 41.38 158.641 41.8829C158.103 42.4199 157.491 42.8775 156.823 43.2421C156.106 43.6396 155.352 43.9671 154.572 44.22C153.761 44.4857 152.929 44.6821 152.085 44.8073C151.252 44.9321 150.411 44.9958 149.57 44.9979C148.489 45.0199 147.412 44.8652 146.382 44.5398C145.584 44.2845 144.837 43.8922 144.174 43.3805C143.638 42.9681 143.199 42.4433 142.887 41.8429C142.626 41.3386 142.486 40.7809 142.475 40.2131C142.457 39.6139 142.615 39.0225 142.93 38.5126C143.232 38.0487 143.617 37.6452 144.066 37.3226C144.131 37.2882 144.175 37.2236 144.183 37.1503C144.188 37.0742 144.152 37.0011 144.088 36.9597C143.696 36.5693 143.389 36.1025 143.185 35.5882C142.974 35.0285 142.891 34.4284 142.942 33.8323C142.963 33.4687 143.038 33.1101 143.163 32.7684C143.278 32.4684 143.429 32.1834 143.612 31.9196C143.783 31.6706 143.99 31.4479 144.226 31.2585C144.441 31.0808 144.668 30.9174 144.905 30.7696C144.978 30.7278 145.027 30.6528 145.036 30.5685C145.044 30.4842 145.011 30.4009 144.948 30.3452C143.988 29.511 143.437 28.3 143.44 27.0272C143.438 26.282 143.628 25.5491 143.993 24.8992C144.383 24.2042 144.927 23.6077 145.583 23.1557C146.344 22.6275 147.188 22.2314 148.08 21.9841C149.149 21.688 150.254 21.5452 151.363 21.5597C152.299 21.5561 153.233 21.6593 154.145 21.8672C154.302 21.8949 154.394 21.8395 154.422 21.6981C154.475 21.3546 154.578 21.021 154.729 20.7079C154.885 20.3856 155.093 20.0907 155.343 19.8346C155.611 19.5649 155.922 19.3424 156.264 19.1765C156.67 18.9859 157.105 18.8673 157.551 18.826C157.91 18.7812 158.274 18.8063 158.623 18.8998C158.937 18.9842 159.235 19.1203 159.504 19.3026C159.756 19.4772 159.972 19.6972 160.143 19.9514C160.311 20.2047 160.433 20.4858 160.502 20.7817C160.579 21.058 160.568 21.3512 160.472 21.6212C160.372 21.8143 160.194 21.9546 159.983 22.0056ZM154.545 39.1307C154.389 38.9504 154.168 38.8397 153.93 38.8232C153.565 38.7763 153.196 38.7619 152.828 38.7801L151.256 38.8324C150.654 38.8529 149.97 38.8427 149.204 38.8017C148.836 38.774 148.489 38.734 148.163 38.6848C147.837 38.6356 147.512 38.5741 147.186 38.5034C147.033 38.4608 146.868 38.4926 146.741 38.5895C146.381 38.8011 146.092 39.116 145.912 39.4936C145.811 39.7122 145.747 39.9459 145.722 40.1854C145.725 40.4878 145.881 40.768 146.136 40.9296C146.444 41.1422 146.784 41.3031 147.143 41.4063C147.545 41.5272 147.956 41.6167 148.372 41.6738C148.727 41.7244 149.085 41.7521 149.444 41.7568C150.185 41.7651 150.926 41.7012 151.655 41.5662C152.221 41.4648 152.773 41.2976 153.301 41.068C153.683 40.9053 154.031 40.6739 154.33 40.3853C154.546 40.1901 154.683 39.9218 154.713 39.6319C154.707 39.5149 154.682 39.3997 154.64 39.2906L154.545 39.1307ZM151.36 29.7271C151.628 29.7363 151.892 29.6586 152.112 29.5057C152.326 29.3485 152.5 29.1444 152.622 28.9091C152.769 28.64 152.872 28.3494 152.929 28.0481C152.993 27.7189 153.025 27.3842 153.024 27.0487C153.026 26.7061 152.994 26.3642 152.929 26.0278C152.872 25.7255 152.769 25.4339 152.622 25.1637C152.5 24.9293 152.326 24.7262 152.112 24.5702C151.893 24.415 151.628 24.3361 151.36 24.3457C151.097 24.3388 150.84 24.4176 150.626 24.5702C150.414 24.7271 150.239 24.93 150.116 25.1637C149.971 25.4345 149.867 25.7259 149.809 26.0278C149.746 26.3644 149.714 26.7062 149.714 27.0487C149.715 27.3841 149.746 27.7187 149.809 28.0481C149.867 28.3491 149.971 28.6394 150.116 28.9091C150.239 29.1438 150.413 29.3477 150.626 29.5057C150.841 29.656 151.098 29.7336 151.36 29.7271ZM178.796 34.6718C178.974 34.8372 179.173 34.9769 179.389 35.087C179.598 35.1944 179.798 35.3199 179.985 35.4621C180.175 35.6291 180.273 35.8774 180.249 36.1294C180.249 36.4 180.062 36.6614 179.687 36.9166C179.248 37.2003 178.768 37.4159 178.265 37.5563C177.656 37.7322 177.028 37.8354 176.395 37.8638C175.753 37.9034 175.109 37.8274 174.494 37.6393C173.907 37.4682 173.376 37.1421 172.958 36.6952C172.512 36.1743 172.253 35.5178 172.224 34.8317H172.206V29.4934C172.191 28.9276 172.172 28.3987 172.151 27.9097C172.137 27.4757 172.081 27.0441 171.982 26.6213C171.914 26.3026 171.772 26.0044 171.567 25.751C171.364 25.5357 171.076 25.4228 170.781 25.4435C170.528 25.4339 170.281 25.5207 170.09 25.6865C169.913 25.8521 169.772 26.0519 169.675 26.2738C169.575 26.5072 169.508 26.7535 169.476 27.0057C169.439 27.2701 169.414 27.4915 169.402 27.676V33.9769C169.451 34.4203 169.735 34.8027 170.145 34.9763H170.167C170.354 35.0424 170.532 35.1312 170.698 35.2407C170.833 35.3422 170.952 35.4647 171.048 35.6036C171.159 35.7697 171.215 35.9666 171.208 36.1663C171.218 36.5127 171.059 36.8421 170.781 37.0489C170.448 37.2933 170.069 37.4671 169.666 37.5593C169.144 37.6895 168.61 37.7678 168.072 37.793C167.458 37.8299 166.844 37.8484 166.214 37.8484C165.585 37.8484 164.961 37.8299 164.372 37.793C163.838 37.7672 163.309 37.6889 162.79 37.5593C162.39 37.4684 162.014 37.2945 161.685 37.0489C161.412 36.8388 161.258 36.5102 161.27 36.1663C161.267 35.9945 161.311 35.8252 161.399 35.6774C161.542 35.4316 161.756 35.2352 162.013 35.1146L162.256 34.9978C162.281 34.9799 162.312 34.9722 162.342 34.9763C162.566 34.8652 162.757 34.6965 162.895 34.4873C163.035 34.2806 163.109 34.036 163.107 33.7862V21.4244C163.135 21.1269 163.04 20.8307 162.842 20.6064C162.663 20.4427 162.462 20.3032 162.247 20.1913C162.037 20.0861 161.837 19.9615 161.651 19.8192C161.461 19.651 161.363 19.4018 161.387 19.1488C161.405 18.7316 161.622 18.3484 161.97 18.1187C162.413 17.7863 162.904 17.5239 163.426 17.3407C164.033 17.1214 164.659 16.9578 165.296 16.8518C165.905 16.7451 166.521 16.6886 167.139 16.6826C167.428 16.6819 167.716 16.7035 168.002 16.7472C168.257 16.7835 168.504 16.8625 168.733 16.9809C168.937 17.0862 169.11 17.2444 169.233 17.4391C169.362 17.6609 169.425 17.9147 169.414 18.171V22.7836C169.407 22.8576 169.445 22.9288 169.51 22.965C169.571 23.0035 169.648 23.0035 169.709 22.965C170.275 22.6048 170.887 22.3215 171.527 22.1224C172.253 21.8977 173.009 21.7867 173.769 21.7934C174.65 21.7523 175.527 21.9243 176.327 22.2946C176.921 22.5929 177.418 23.0535 177.761 23.6231C178.094 24.2121 178.303 24.863 178.376 25.5358C178.469 26.2773 178.515 27.024 178.514 27.7714V33.8539C178.487 34.1544 178.59 34.452 178.796 34.6718ZM194.194 21.901C194.977 21.9769 195.739 22.1924 196.445 22.5376C197.191 22.8984 197.864 23.3924 198.432 23.9952C199.039 24.6431 199.522 25.3966 199.857 26.2184C200.231 27.158 200.415 28.1624 200.398 29.1736C200.399 30.2765 200.182 31.3687 199.759 32.3871C199.338 33.4202 198.718 34.3605 197.935 35.1546C197.102 35.9888 196.112 36.6503 195.024 37.1011C193.783 37.6083 192.454 37.8584 191.114 37.8361C190.553 37.8438 189.994 37.7681 189.456 37.6116C189.002 37.4735 188.572 37.2661 188.181 36.9966C188.138 36.958 188.081 36.9385 188.023 36.9425C187.965 36.9466 187.912 36.9738 187.874 37.0181C187.437 37.3433 186.937 37.5747 186.406 37.6977C185.857 37.8272 185.294 37.8912 184.73 37.8885C184.232 37.8885 183.753 37.8885 183.283 37.8576C182.868 37.8435 182.456 37.7827 182.055 37.6762C181.729 37.5968 181.429 37.4359 181.183 37.2088C180.957 36.9771 180.838 36.6618 180.854 36.3385C180.846 36.1377 180.902 35.9396 181.014 35.7727C181.111 35.6317 181.229 35.5062 181.364 35.4006C181.527 35.2836 181.706 35.1904 181.895 35.1239L182.085 35.0716C182.177 35.0485 182.267 35.0166 182.353 34.9763C182.445 34.9325 182.525 34.8671 182.586 34.7856C182.655 34.6775 182.688 34.5507 182.681 34.4228V21.1999C182.711 20.9018 182.614 20.605 182.414 20.3819C182.236 20.2176 182.037 20.0779 181.821 19.9668C181.614 19.8611 181.415 19.7409 181.226 19.607C181.033 19.4445 180.934 19.1966 180.961 18.9459C180.979 18.5285 181.196 18.145 181.545 17.9157C181.987 17.5796 182.478 17.3141 183.001 17.1285C183.605 16.9012 184.231 16.7334 184.868 16.6273C185.476 16.5194 186.092 16.4629 186.71 16.4581C186.998 16.4581 187.285 16.4785 187.57 16.5197C187.823 16.5551 188.067 16.6352 188.292 16.7564C188.493 16.8649 188.665 17.0212 188.792 17.2115C188.928 17.432 188.994 17.688 188.983 17.9465V23.2202C188.983 23.2934 189.025 23.36 189.09 23.3925C189.157 23.4352 189.245 23.4263 189.302 23.3709C189.557 23.1864 189.837 22.9958 190.141 22.7959C190.47 22.5856 190.818 22.4075 191.182 22.2639C191.611 22.0981 192.057 21.9805 192.511 21.9133C193.07 21.8397 193.635 21.8356 194.194 21.901ZM190.881 34.8533C191.196 34.8474 191.503 34.7479 191.762 34.5673C192.081 34.3458 192.346 34.0545 192.536 33.7155C192.785 33.2871 192.971 32.8253 193.089 32.344C193.237 31.7405 193.309 31.1205 193.301 30.499C193.308 29.8949 193.244 29.2921 193.11 28.7031C193.007 28.2335 192.835 27.7817 192.601 27.3624C192.418 27.0331 192.164 26.7492 191.857 26.5321C191.596 26.3485 191.286 26.2488 190.967 26.2461C190.662 26.2385 190.36 26.3038 190.085 26.4368C189.85 26.5566 189.641 26.7229 189.471 26.9257C189.308 27.1279 189.185 27.3596 189.109 27.6084C189.033 27.8565 188.993 28.1145 188.992 28.3741V32.4793C188.981 32.8837 189.042 33.2868 189.173 33.6694C189.27 33.9421 189.422 34.1921 189.619 34.4043C189.789 34.5747 190.001 34.6986 190.233 34.7641C190.441 34.8223 190.656 34.8522 190.872 34.8533H190.881ZM210.563 21.4521C211.775 21.4402 212.978 21.6572 214.11 22.0917C215.16 22.4922 216.124 23.0915 216.947 23.8568C217.748 24.6086 218.39 25.5129 218.836 26.5167C219.758 28.6144 219.758 31.0028 218.836 33.1005C218.389 34.0964 217.746 34.9925 216.947 35.7358C216.122 36.4962 215.159 37.0921 214.11 37.4917C211.832 38.3423 209.324 38.3423 207.047 37.4917C205.998 37.0921 205.035 36.4962 204.209 35.7358C203.411 34.9917 202.769 34.0958 202.32 33.1005C201.399 31.0028 201.399 28.6144 202.32 26.5167C202.768 25.5137 203.41 24.6096 204.209 23.8568C205.033 23.0915 205.996 22.4922 207.047 22.0917C208.168 21.6597 209.361 21.4427 210.563 21.4521ZM210.563 34.9609C210.942 34.9623 211.308 34.8169 211.582 34.555C211.909 34.2462 212.17 33.8736 212.347 33.4603C212.578 32.9376 212.742 32.388 212.835 31.8243C212.953 31.1574 213.011 30.4812 213.007 29.804C213.011 29.1227 212.953 28.4424 212.835 27.7714C212.741 27.204 212.577 26.6504 212.347 26.1231C212.171 25.7062 211.911 25.3303 211.582 25.0192C211.308 24.7573 210.942 24.6118 210.563 24.6132C210.19 24.6148 209.833 24.7602 209.565 25.0192C209.237 25.3303 208.976 25.7062 208.8 26.1231C208.57 26.6504 208.406 27.204 208.312 27.7714C208.195 28.4425 208.139 29.1228 208.143 29.804C208.142 30.4814 208.201 31.1576 208.321 31.8243C208.415 32.3848 208.579 32.9313 208.809 33.451C208.987 33.8644 209.247 34.2369 209.574 34.5458C209.838 34.8059 210.192 34.9545 210.563 34.9609ZM225.74 21.5812C226.028 21.5805 226.315 21.6021 226.6 21.6458C226.852 21.6803 227.097 21.7594 227.321 21.8795C227.523 21.988 227.695 22.1443 227.822 22.3346C227.957 22.555 228.024 22.811 228.012 23.0696V23.3463C228.009 23.403 228.041 23.4558 228.093 23.4795C228.144 23.5033 228.205 23.4931 228.246 23.454C228.86 22.9064 229.561 22.4638 230.319 22.144C231.096 21.8019 231.936 21.625 232.785 21.6243C233.25 21.6285 233.713 21.6894 234.164 21.8057C234.658 21.9256 235.126 22.1339 235.546 22.4207C235.98 22.7155 236.344 23.1043 236.608 23.5585C236.906 24.0933 237.053 24.6993 237.032 25.3113C237.023 25.607 236.996 25.9018 236.949 26.1938C236.882 26.6107 236.737 27.0112 236.522 27.3747C236.275 27.7955 235.934 28.1525 235.524 28.4171C234.973 28.7455 234.337 28.9018 233.697 28.8661C233.103 28.9008 232.514 28.7515 232.008 28.4387C231.648 28.2025 231.346 27.8869 231.126 27.5161C230.957 27.2213 230.845 26.8966 230.798 26.5598C230.761 26.2523 230.746 26.0985 230.746 26.0708C230.746 25.9455 230.753 25.8202 230.767 25.6957C230.777 25.5773 230.798 25.46 230.828 25.3451C230.856 25.2037 230.795 25.1329 230.638 25.1329C230.335 25.1576 230.042 25.2489 229.778 25.4005C229.513 25.5495 229.272 25.7394 229.066 25.9632C228.729 26.3101 228.463 26.7182 228.28 27.1656C228.095 27.6141 228.001 28.0949 228.003 28.5801V33.8539C228.001 34.1037 228.075 34.3482 228.215 34.555C228.357 34.7693 228.556 34.9397 228.789 35.047C228.978 35.1105 229.156 35.1995 229.321 35.3115C229.457 35.4112 229.576 35.534 229.671 35.6743C229.783 35.8396 229.84 36.0371 229.83 36.237C229.842 36.5829 229.684 36.9125 229.407 37.1196C229.073 37.3635 228.694 37.5371 228.292 37.6301C227.769 37.7602 227.236 37.8385 226.698 37.8638C226.084 37.9007 225.47 37.916 224.855 37.916C224.241 37.916 223.559 37.9007 222.964 37.8638C222.43 37.8384 221.9 37.7601 221.382 37.6301C220.984 37.5406 220.61 37.3665 220.286 37.1196C220.02 36.9054 219.871 36.5783 219.883 36.237C219.874 36.0252 219.934 35.8161 220.052 35.6405C220.159 35.4934 220.288 35.3646 220.436 35.2592C220.612 35.1427 220.806 35.0565 221.01 35.0039C221.443 34.7877 221.709 34.3376 221.689 33.8539V26.323C221.719 26.0249 221.622 25.728 221.422 25.505C221.246 25.3422 221.05 25.2026 220.838 25.0899C220.637 24.9821 220.442 24.8619 220.255 24.7301C220.062 24.5679 219.962 24.3201 219.988 24.069C220.008 23.6514 220.226 23.2685 220.574 23.0388C221.017 22.7039 221.508 22.4384 222.03 22.2516C222.635 22.0243 223.26 21.8564 223.897 21.7504C224.506 21.6425 225.122 21.5859 225.74 21.5812ZM242.722 16.6826C243.01 16.6819 243.298 16.7035 243.582 16.7472C243.838 16.7835 244.086 16.8625 244.316 16.9809C244.52 17.0863 244.692 17.2445 244.814 17.4391C244.942 17.6609 245.005 17.9147 244.995 18.171V22.7836C244.988 22.8576 245.025 22.9288 245.09 22.965C245.152 23.0033 245.231 23.0033 245.293 22.965C245.858 22.6048 246.468 22.3215 247.108 22.1224C247.834 21.8977 248.59 21.7867 249.35 21.7934C250.231 21.7523 251.11 21.9242 251.911 22.2946C252.504 22.5938 253.001 23.0541 253.345 23.6231C253.678 24.2121 253.887 24.863 253.959 25.5358C254.052 26.2773 254.099 27.024 254.098 27.7714V33.8539C254.073 34.1553 254.178 34.453 254.386 34.6718C254.565 34.8373 254.765 34.977 254.982 35.087C255.19 35.1944 255.388 35.3199 255.575 35.4621C255.767 35.6276 255.867 35.8767 255.842 36.1294C255.842 36.4 255.655 36.6614 255.28 36.9166C254.84 37.2002 254.359 37.4158 253.855 37.5563C253.246 37.7322 252.618 37.8354 251.985 37.8638C251.343 37.9032 250.699 37.8272 250.084 37.6393C249.503 37.4648 248.98 37.139 248.567 36.6952C248.119 36.175 247.86 35.5181 247.833 34.8317H247.811V29.4934C247.811 28.9276 247.78 28.3987 247.759 27.9097C247.744 27.4758 247.687 27.0444 247.59 26.6213C247.521 26.303 247.379 26.0052 247.175 25.751C246.773 25.3562 246.14 25.3233 245.698 25.6742C245.52 25.8381 245.379 26.0384 245.284 26.2615C245.184 26.4952 245.115 26.7414 245.081 26.9934C245.047 27.2578 245.023 27.4792 245.007 27.6637V33.9769C245.06 34.4186 245.343 34.7991 245.751 34.9763H245.772C245.96 35.0411 246.138 35.13 246.303 35.2407C246.44 35.3405 246.559 35.4633 246.653 35.6036C246.766 35.7688 246.822 35.9664 246.813 36.1663C246.824 36.5122 246.666 36.8418 246.389 37.0489C246.056 37.2923 245.677 37.4659 245.275 37.5593C244.752 37.6895 244.218 37.7678 243.681 37.793C243.079 37.8299 242.458 37.8484 241.82 37.8484C241.184 37.8484 240.567 37.8299 239.977 37.793C239.442 37.7674 238.912 37.6891 238.392 37.5593C237.993 37.4684 237.618 37.2945 237.29 37.0489C237.018 36.8388 236.863 36.5102 236.875 36.1663C236.872 35.9949 236.916 35.826 237.001 35.6774C237.078 35.546 237.176 35.4277 237.29 35.3268C237.382 35.2423 237.485 35.1709 237.597 35.1146L237.843 34.9978C237.868 34.9799 237.898 34.9722 237.929 34.9763C238.151 34.8642 238.341 34.6957 238.478 34.4873C238.62 34.281 238.695 34.0364 238.693 33.7862V21.4244C238.723 21.1263 238.626 20.8294 238.426 20.6064C238.247 20.442 238.047 20.3024 237.83 20.1913C237.622 20.0861 237.423 19.9615 237.238 19.8192C237.045 19.6525 236.945 19.4025 236.97 19.1488C236.99 18.7313 237.208 18.3484 237.557 18.1187C237.998 17.7857 238.488 17.5232 239.01 17.3407C239.617 17.1214 240.243 16.9578 240.88 16.8518C241.488 16.7453 242.105 16.6888 242.722 16.6826ZM264.923 21.4521C266.136 21.4405 267.34 21.6574 268.473 22.0917C269.522 22.4922 270.485 23.0915 271.307 23.8568C272.108 24.6093 272.751 25.5134 273.199 26.5167C274.116 28.6152 274.116 31.002 273.199 33.1005C272.75 34.0959 272.106 34.9918 271.307 35.7358C270.483 36.4962 269.521 37.0921 268.473 37.4917C266.195 38.3415 263.688 38.3415 261.41 37.4917C260.362 37.0928 259.399 36.4968 258.575 35.7358C257.775 34.9927 257.132 34.0966 256.683 33.1005C255.762 31.0028 255.762 28.6144 256.683 26.5167C257.131 25.5128 257.774 24.6084 258.575 23.8568C259.397 23.0909 260.36 22.4915 261.41 22.0917C262.53 21.6601 263.722 21.4431 264.923 21.4521ZM264.923 34.9609C265.302 34.963 265.668 34.8174 265.942 34.555C266.269 34.2462 266.529 33.8736 266.707 33.4603C266.939 32.9412 267.105 32.3945 267.198 31.8335C267.314 31.1663 267.37 30.4903 267.367 29.8132C267.37 29.1321 267.313 28.452 267.198 27.7806C267.104 27.2127 266.939 26.6589 266.707 26.1323C266.531 25.7154 266.271 25.3396 265.942 25.0284C265.668 24.7659 265.302 24.6204 264.923 24.6225C264.55 24.6241 264.193 24.7695 263.925 25.0284C263.596 25.3396 263.336 25.7154 263.16 26.1323C262.93 26.6596 262.766 27.2132 262.672 27.7806C262.555 28.4518 262.499 29.132 262.503 29.8132C262.501 30.4875 262.56 31.1605 262.678 31.8243C262.772 32.3848 262.936 32.9313 263.166 33.451C263.344 33.8644 263.604 34.2369 263.931 34.5458C264.196 34.8066 264.551 34.9553 264.923 34.9609ZM284.175 21.4521C285.388 21.4399 286.592 21.6569 287.725 22.0917C288.774 22.4922 289.737 23.0915 290.56 23.8568C291.361 24.6084 292.004 25.5128 292.451 26.5167C293.369 28.6152 293.369 31.002 292.451 33.1005C292.003 34.0966 291.36 34.9927 290.56 35.7358C289.735 36.4962 288.773 37.0921 287.725 37.4917C285.447 38.3415 282.94 38.3415 280.662 37.4917C279.614 37.0928 278.652 36.4968 277.827 35.7358C277.027 34.9927 276.384 34.0966 275.935 33.1005C275.014 31.0028 275.014 28.6144 275.935 26.5167C276.383 25.5128 277.026 24.6084 277.827 23.8568C278.65 23.0909 279.612 22.4915 280.662 22.0917C281.782 21.6601 282.974 21.4431 284.175 21.4521ZM284.175 34.9609C284.555 34.9625 284.922 34.8171 285.198 34.555C285.522 34.2451 285.782 33.8727 285.959 33.4603C286.192 32.9412 286.357 32.3945 286.451 31.8335C286.566 31.1663 286.622 30.4903 286.62 29.8132C286.622 29.1321 286.566 28.452 286.451 27.7806C286.357 27.2127 286.191 26.6589 285.959 26.1323C285.783 25.7163 285.524 25.3406 285.198 25.0284C284.922 24.7663 284.555 24.6209 284.175 24.6225C283.803 24.6241 283.445 24.7695 283.177 25.0284C282.849 25.3396 282.588 25.7154 282.412 26.1323C282.183 26.6596 282.019 27.2132 281.924 27.7806C281.807 28.4518 281.751 29.132 281.755 29.8132C281.751 30.4904 281.807 31.1665 281.924 31.8335C282.018 32.394 282.182 32.9405 282.412 33.4603C282.59 33.8736 282.85 34.2462 283.177 34.555C283.445 34.8139 283.803 34.9593 284.175 34.9609ZM311.934 33.2173C311.908 33.5122 312.005 33.8048 312.201 34.0261C312.375 34.1944 312.575 34.3335 312.794 34.4381C313.004 34.5391 313.203 34.6607 313.39 34.801C313.582 34.9677 313.682 35.2177 313.657 35.4714C313.637 35.8889 313.419 36.2718 313.07 36.5015C312.63 36.8368 312.14 37.0995 311.618 37.2795C311.009 37.4987 310.384 37.6653 309.747 37.7777C309.14 37.8938 308.523 37.9545 307.905 37.9591C307.617 37.9598 307.329 37.9382 307.045 37.8945C306.791 37.861 306.546 37.7785 306.323 37.6516C306.123 37.5355 305.952 37.3757 305.823 37.1842C305.689 36.9632 305.622 36.7076 305.632 36.4492C305.633 36.3539 305.58 36.2664 305.494 36.2248C305.407 36.1752 305.298 36.189 305.227 36.2586C304.972 36.4431 304.72 36.6276 304.474 36.8121C304.209 37.0069 303.924 37.1738 303.624 37.3103C303.273 37.4715 302.907 37.5962 302.53 37.6823C302.05 37.7907 301.558 37.8413 301.066 37.833C300.204 37.8264 299.355 37.6301 298.578 37.258C297.753 36.8715 297.007 36.3344 296.379 35.6743C295.718 34.9742 295.189 34.1593 294.819 33.2696C294.415 32.303 294.212 31.2639 294.223 30.216C294.216 29.1526 294.403 28.0968 294.776 27.101C295.126 26.1591 295.657 25.2951 296.339 24.5579C297.025 23.8251 297.853 23.2393 298.772 22.8359C299.776 22.3996 300.861 22.1826 301.956 22.1993C302.611 22.1826 303.264 22.2719 303.891 22.4638C304.364 22.6176 304.813 22.8359 305.227 23.1126C305.308 23.1661 305.413 23.1661 305.494 23.1126C305.58 23.0732 305.635 22.9861 305.632 22.8912V21.3998C305.658 21.1058 305.561 20.8143 305.365 20.5941C305.192 20.4239 304.991 20.2836 304.772 20.179C304.562 20.078 304.363 19.9565 304.176 19.8161C303.985 19.6488 303.887 19.3989 303.912 19.1458C303.93 18.7285 304.147 18.3453 304.496 18.1156C304.938 17.7821 305.429 17.5196 305.952 17.3376C306.562 17.1176 307.191 16.954 307.831 16.8487C308.439 16.741 309.056 16.6844 309.674 16.6795C309.961 16.6788 310.249 16.7004 310.533 16.7441C310.79 16.7786 311.038 16.8577 311.267 16.9778C311.471 17.0837 311.643 17.2405 311.768 17.4329C311.895 17.6563 311.957 17.911 311.946 18.1679L311.934 33.2173ZM303.642 33.94C303.947 33.9469 304.249 33.8816 304.523 33.7493C304.759 33.6289 304.968 33.4627 305.138 33.2604C305.303 33.0557 305.426 32.8206 305.5 32.5685C305.576 32.316 305.615 32.0541 305.617 31.7905V28.3033C305.617 28.1188 305.617 27.8605 305.617 27.5254C305.61 27.1857 305.553 26.849 305.448 26.526C305.343 26.1949 305.152 25.8977 304.895 25.6649C304.562 25.3997 304.141 25.2701 303.716 25.3021C303.401 25.3112 303.097 25.4188 302.847 25.6096C302.535 25.837 302.275 26.1272 302.082 26.4614C301.831 26.8887 301.645 27.3509 301.529 27.8329C301.381 28.4364 301.31 29.0564 301.317 29.6779C301.31 30.2823 301.37 30.8856 301.495 31.4768C301.595 31.949 301.764 32.4038 301.996 32.8268C302.176 33.1602 302.43 33.4475 302.739 33.6663C303.008 33.849 303.326 33.9445 303.651 33.94H303.642ZM329.781 25.569C329.786 26.039 330.042 26.4706 330.451 26.7006C330.98 27.0326 331.543 27.3059 332.131 27.5155C332.802 27.7676 333.532 28.0331 334.32 28.3119C335.087 28.5794 335.821 28.9311 336.51 29.3605C337.172 29.7746 337.743 30.3186 338.19 30.9596C338.658 31.6842 338.892 32.5357 338.859 33.3981C338.86 33.9934 338.717 34.58 338.442 35.1078C338.138 35.6802 337.706 36.174 337.18 36.5501C336.529 37.0138 335.801 37.3565 335.03 37.5618C334.038 37.8282 333.013 37.9544 331.986 37.9369C331.526 37.9369 331.019 37.9154 330.469 37.8754C329.915 37.8337 329.363 37.7525 328.82 37.6325C328.276 37.5115 327.742 37.3469 327.223 37.1405C326.728 36.9496 326.267 36.6785 325.86 36.3379C325.469 36.0067 325.147 35.6011 324.914 35.1448C324.665 34.6373 324.543 34.077 324.558 33.5119C324.558 33.4442 324.558 33.2966 324.598 33.066C324.633 32.8094 324.712 32.5608 324.831 32.3311C324.975 32.0553 325.186 31.8204 325.445 31.6484C325.788 31.429 326.19 31.3216 326.597 31.3409C327.007 31.3384 327.412 31.4366 327.776 31.6269C328.151 31.8234 328.503 32.0628 328.823 32.3403C329.158 32.6286 329.474 32.9367 329.772 33.2628L330.608 34.1853C330.833 34.4412 331.077 34.6796 331.338 34.8987C331.522 35.0702 331.76 35.1715 332.011 35.1847C332.377 35.1884 332.74 35.1085 333.07 34.951C333.359 34.8474 333.554 34.5755 333.559 34.2684C333.562 33.9359 333.425 33.6174 333.181 33.392C332.884 33.1147 332.543 32.8873 332.174 32.7185C331.71 32.4982 331.234 32.3041 330.749 32.1373C330.221 31.9528 329.678 31.7529 329.121 31.5377C328.564 31.3195 328.02 31.07 327.49 30.7904C326.971 30.519 326.491 30.1764 326.065 29.7726C325.643 29.3686 325.301 28.8874 325.058 28.355C324.794 27.7518 324.665 27.0978 324.68 26.4392C324.683 25.8473 324.827 25.2645 325.098 24.7387C325.401 24.1615 325.833 23.6626 326.36 23.2811C327.011 22.8186 327.739 22.476 328.51 22.2694C329.502 22.0034 330.526 21.8771 331.553 21.8942C332.299 21.8985 333.044 21.9529 333.783 22.0572C334.549 22.1566 335.294 22.3734 335.994 22.6999C336.662 23.0113 337.247 23.4759 337.702 24.056C338.19 24.7153 338.448 25.5171 338.436 26.3377C338.43 26.4676 338.417 26.597 338.396 26.7252C338.311 27.2291 338 27.6659 337.551 27.9091C337.195 28.089 336.798 28.1727 336.399 28.152C335.958 28.1603 335.52 28.0732 335.116 27.8968C334.744 27.7313 334.398 27.5117 334.09 27.2449C333.791 26.9872 333.515 26.7042 333.264 26.3992L332.573 25.5536C332.383 25.3166 332.171 25.0983 331.94 24.9017C331.774 24.7445 331.555 24.6537 331.326 24.6464C330.96 24.6427 330.597 24.7226 330.267 24.8801C329.977 24.9856 329.783 25.2604 329.781 25.569ZM357.101 22.0695C357.377 22.0693 357.652 22.0899 357.924 22.131C358.167 22.1632 358.402 22.2393 358.618 22.3555C358.81 22.4596 358.974 22.6096 359.094 22.7922C359.225 23.0029 359.289 23.2484 359.278 23.4964V31.6084C359.278 33.2136 359.841 34.0162 360.968 34.0162C361.219 34.0222 361.466 33.9548 361.68 33.8225C361.888 33.6895 362.06 33.5066 362.181 33.2905C362.316 33.0489 362.412 32.7873 362.466 32.5156C362.526 32.2117 362.556 31.9027 362.555 31.593H362.577C362.577 30.9411 362.555 30.2062 362.555 29.3913V26.6237C362.585 26.338 362.492 26.0532 362.3 25.8396C362.133 25.6828 361.945 25.5494 361.741 25.4429C361.547 25.3403 361.36 25.2242 361.182 25.0954C360.998 24.9406 360.903 24.7045 360.928 24.465C360.945 24.0645 361.153 23.6965 361.487 23.4748C361.911 23.1548 362.381 22.9008 362.881 22.7214C363.461 22.5031 364.062 22.3425 364.674 22.2417C365.259 22.1382 365.852 22.0837 366.446 22.0787C366.719 22.0784 366.991 22.099 367.26 22.1402C367.502 22.1743 367.735 22.2503 367.951 22.3647C368.146 22.4662 368.311 22.6167 368.43 22.8014C368.552 23.0154 368.612 23.2594 368.602 23.5056V33.3458C368.586 33.6178 368.678 33.8851 368.857 34.09C369.025 34.2524 369.218 34.3864 369.428 34.4867C369.629 34.5833 369.819 34.6997 369.996 34.8342C370.179 34.995 370.274 35.2341 370.251 35.4769C370.233 35.8764 370.025 36.2433 369.692 36.464C369.27 36.7843 368.799 37.0354 368.298 37.2081C367.716 37.4208 367.115 37.5813 366.505 37.6878C365.921 37.7994 365.329 37.8581 364.736 37.8631C364.397 37.8697 364.059 37.8346 363.728 37.7586C363.5 37.7067 363.282 37.614 363.087 37.4849C362.941 37.3896 362.822 37.2596 362.74 37.1067C362.674 36.9786 362.626 36.842 362.598 36.7007C362.585 36.6344 362.539 36.5796 362.475 36.5562C362.408 36.5294 362.333 36.5374 362.273 36.5777C361.798 36.9035 361.281 37.1641 360.737 37.3527C360.231 37.5357 359.697 37.6324 359.159 37.6386C358.376 37.6584 357.598 37.5193 356.871 37.2297C355.727 36.7632 354.807 35.8718 354.303 34.7419C354.077 34.2471 353.898 33.7324 353.766 33.2044C353.651 32.7454 353.576 32.2773 353.542 31.8052C353.514 31.3778 353.499 31.0487 353.499 30.8181V26.4853C353.498 26.219 353.387 25.9649 353.192 25.7842C353.019 25.6432 352.831 25.5206 352.633 25.4183C352.443 25.3191 352.262 25.2028 352.092 25.0708C351.92 24.9147 351.831 24.6874 351.85 24.4558C351.861 24.0632 352.052 23.6978 352.369 23.4656C352.76 23.1461 353.199 22.8918 353.671 22.7122C354.218 22.4927 354.788 22.3319 355.369 22.2325C355.941 22.128 356.52 22.0735 357.101 22.0695ZM346.813 17.5061C346.964 17.5965 347.09 17.7234 347.179 17.8751C347.259 18.0165 347.311 18.1721 347.332 18.3333C347.35 18.4823 347.359 18.6322 347.36 18.7823V21.4514C347.353 21.5482 347.391 21.6429 347.464 21.7067C347.53 21.7677 347.617 21.8007 347.707 21.7989H349.826C350.109 21.7903 350.382 21.902 350.578 22.1064C350.779 22.3086 350.89 22.5837 350.885 22.869V23.3395C350.89 23.6249 350.779 23.9 350.578 24.1021C350.382 24.3065 350.109 24.4183 349.826 24.4097H347.707C347.615 24.4082 347.528 24.445 347.464 24.5111C347.394 24.5806 347.356 24.6766 347.36 24.7756V31.2333C347.369 31.7214 347.607 32.1768 348.002 32.4633C348.188 32.5995 348.395 32.7035 348.616 32.7708C348.846 32.8471 349.086 32.8856 349.328 32.8846C349.686 32.897 350.043 32.8481 350.385 32.74C350.604 32.6701 350.811 32.5663 350.999 32.4325C351.119 32.3398 351.231 32.237 351.334 32.125C351.407 32.04 351.513 31.9907 351.626 31.9897C351.733 31.9897 351.874 32.082 352.052 32.2665C352.247 32.5113 352.342 32.8215 352.316 33.1337C352.304 33.6233 352.19 34.1051 351.982 34.5482C351.737 35.0868 351.395 35.5749 350.971 35.9873C350.487 36.4613 349.918 36.8409 349.295 37.1067C348.551 37.4211 347.749 37.5741 346.942 37.5556C346.204 37.5589 345.473 37.4135 344.793 37.1282C344.129 36.8514 343.522 36.4542 343.002 35.9566C342.488 35.4608 342.071 34.8724 341.774 34.2222C341.467 33.5616 341.311 32.8411 341.316 32.1127V24.794C341.32 24.6957 341.283 24.6002 341.215 24.5296C341.143 24.4608 341.047 24.4242 340.948 24.4281H340.521C340.248 24.4327 339.985 24.33 339.787 24.1421C339.586 23.9562 339.464 23.7014 339.443 23.4287V22.9797C339.461 22.5707 339.587 22.1737 339.808 21.8297C340.08 21.3801 340.402 20.9623 340.766 20.5843C341.179 20.1527 341.621 19.7509 342.09 19.3819C342.56 19.0084 343.052 18.6644 343.564 18.3518C344.02 18.074 344.496 17.8323 344.989 17.6291C345.352 17.4663 345.743 17.3735 346.141 17.3554C346.374 17.343 346.607 17.3951 346.813 17.5061ZM387.372 33.1675C387.348 33.4498 387.44 33.7299 387.627 33.9424C387.795 34.1048 387.988 34.2388 388.198 34.3391C388.399 34.4356 388.589 34.5521 388.766 34.6866C388.949 34.8474 389.044 35.0865 389.021 35.3293C389.003 35.7288 388.795 36.0957 388.462 36.3164C388.039 36.6355 387.569 36.8866 387.068 37.0605C386.486 37.2732 385.885 37.4337 385.275 37.5402C384.691 37.6509 384.099 37.7086 383.506 37.7125C383.229 37.7137 382.953 37.6941 382.68 37.654C382.436 37.6193 382.202 37.539 381.989 37.4172C381.797 37.3071 381.633 37.1546 381.51 36.9713C381.379 36.7606 381.314 36.5151 381.325 36.2672C381.328 36.1755 381.276 36.091 381.193 36.0519C381.111 36.0046 381.007 36.0171 380.938 36.0826C380.696 36.261 380.453 36.4363 380.217 36.6146C379.962 36.8005 379.689 36.9602 379.403 37.0913C379.066 37.2456 378.714 37.3651 378.353 37.448C377.892 37.5511 377.421 37.5997 376.949 37.5925C376.125 37.5867 375.312 37.3987 374.569 37.0421C373.776 36.6733 373.061 36.1579 372.459 35.523C371.826 34.8518 371.32 34.0715 370.964 33.2198C370.576 32.293 370.382 31.2969 370.392 30.2923C370.386 29.2728 370.566 28.2608 370.924 27.3064C371.26 26.405 371.768 25.5778 372.419 24.8709C373.078 24.1694 373.87 23.6078 374.75 23.2196C375.714 22.8005 376.755 22.5908 377.806 22.6046C378.43 22.5911 379.052 22.6772 379.648 22.8598C380.101 23.0062 380.532 23.2131 380.929 23.4748C381.005 23.5255 381.102 23.5307 381.183 23.4884C381.263 23.4461 381.315 23.363 381.316 23.2719V21.845C381.342 21.5625 381.25 21.2819 381.061 21.0701C380.894 20.9087 380.702 20.7748 380.493 20.6734C380.291 20.5776 380.1 20.4612 379.922 20.326C379.738 20.1654 379.643 19.9261 379.667 19.6833C379.685 19.283 379.894 18.9158 380.229 18.6962C380.651 18.3758 381.122 18.1246 381.623 17.952C382.209 17.7406 382.814 17.5841 383.429 17.4846C384.011 17.3798 384.6 17.3242 385.192 17.3185C385.467 17.3183 385.742 17.3389 386.015 17.38C386.26 17.4156 386.497 17.4914 386.718 17.6045C386.913 17.7072 387.078 17.8587 387.197 18.0442C387.319 18.2571 387.379 18.5001 387.369 18.7454L387.372 33.1675ZM379.437 33.8471C379.729 33.8547 380.019 33.7914 380.281 33.6626C380.507 33.5476 380.707 33.3887 380.871 33.1952C381.031 32.9999 381.149 32.7738 381.218 32.5309C381.29 32.2895 381.327 32.0388 381.328 31.7868V28.4442C381.328 28.2658 381.328 28.0198 381.328 27.7C381.321 27.374 381.266 27.0508 381.166 26.7406C381.064 26.4244 380.882 26.1403 380.637 25.9164C380.317 25.6629 379.914 25.5389 379.507 25.569C379.206 25.5742 378.913 25.6742 378.672 25.8549C378.374 26.0732 378.124 26.3506 377.938 26.6698C377.699 27.0805 377.521 27.5239 377.41 27.986C377.268 28.5624 377.2 29.1544 377.207 29.748C377.2 30.3266 377.258 30.9043 377.379 31.47C377.471 31.9236 377.633 32.3603 377.858 32.7646C378.03 33.0845 378.274 33.3602 378.571 33.5703C378.825 33.748 379.127 33.8445 379.437 33.8471ZM398.508 34.8649C398.689 34.9281 398.861 35.0171 399.017 35.1294C399.146 35.2315 399.258 35.3516 399.352 35.4861C399.458 35.6461 399.512 35.8353 399.506 36.0273C399.517 36.3586 399.365 36.6743 399.1 36.8729C398.781 37.1065 398.415 37.27 398.029 37.3527C397.524 37.4696 397.01 37.5446 396.493 37.5771C395.916 37.6181 395.322 37.6386 394.712 37.6386C394.073 37.6386 393.483 37.6171 392.891 37.5771C392.38 37.5447 391.872 37.4696 391.374 37.3527C390.996 37.2716 390.642 37.1078 390.336 36.8729C390.08 36.6684 389.936 36.3547 389.949 36.0273C389.942 35.8214 389.999 35.6185 390.111 35.4461C390.207 35.3007 390.332 35.1763 390.477 35.0802C390.649 34.9738 390.834 34.8881 391.027 34.8249C391.227 34.7209 391.393 34.562 391.506 34.3668C391.621 34.1724 391.68 33.95 391.678 33.7241V26.4669C391.706 26.1818 391.615 25.8977 391.426 25.6827C391.256 25.5267 391.067 25.3924 390.864 25.283C390.668 25.1796 390.481 25.0603 390.305 24.9263C390.122 24.7667 390.027 24.5285 390.05 24.2867C390.067 23.8853 390.276 23.5168 390.612 23.2965C391.034 22.9761 391.505 22.7249 392.006 22.5523C392.588 22.342 393.187 22.1856 393.797 22.0849C394.382 21.98 394.974 21.9255 395.569 21.9219C395.844 21.9207 396.119 21.9402 396.392 21.9803C396.634 22.0159 396.868 22.0918 397.086 22.2048C397.278 22.3101 397.441 22.4611 397.562 22.6446C397.693 22.8553 397.757 23.1008 397.746 23.3488V33.7241C397.745 33.9638 397.816 34.1983 397.949 34.3975C398.087 34.6028 398.281 34.7648 398.508 34.8649ZM397.556 18.3518C397.557 18.7127 397.476 19.0692 397.319 19.3942C397.166 19.7169 396.949 20.0047 396.68 20.2398C396.396 20.4836 396.072 20.6761 395.722 20.8087C394.975 21.0956 394.148 21.0956 393.4 20.8087C393.051 20.6767 392.728 20.4842 392.445 20.2398C392.176 20.0049 391.958 19.7171 391.804 19.3942C391.648 19.069 391.568 18.7125 391.57 18.3518C391.567 17.9959 391.647 17.6443 391.804 17.3247C391.959 17.0051 392.177 16.7205 392.445 16.4883C392.729 16.244 393.052 16.0505 393.4 15.9163C394.149 15.6334 394.974 15.6334 395.722 15.9163C396.072 16.0513 396.396 16.2447 396.68 16.4883C396.948 16.7207 397.165 17.0053 397.319 17.3247C397.476 17.6441 397.557 17.9957 397.556 18.3518ZM408.178 21.8789C409.34 21.8698 410.493 22.0784 411.578 22.4939C412.583 22.8783 413.506 23.4525 414.296 24.1852C415.062 24.9067 415.678 25.7731 416.108 26.7344C416.988 28.7454 416.988 31.0334 416.108 33.0445C415.678 33.9997 415.062 34.8592 414.296 35.5722C413.504 36.2999 412.582 36.8707 411.578 37.2543C409.391 38.0701 406.984 38.0701 404.797 37.2543C403.794 36.8714 402.872 36.3005 402.082 35.5722C401.315 34.86 400.699 34.0004 400.27 33.0445C399.386 31.0343 399.386 28.7446 400.27 26.7344C400.699 25.7725 401.315 24.9058 402.082 24.1852C402.87 23.4519 403.792 22.8776 404.797 22.4939C405.876 22.08 407.023 21.8715 408.178 21.8789ZM408.178 34.8249C408.541 34.826 408.891 34.6873 409.155 34.4375C409.468 34.1405 409.718 33.7827 409.889 33.3858C410.11 32.888 410.266 32.3641 410.356 31.8267C410.469 31.1873 410.523 30.5388 410.518 29.8894C410.523 29.237 410.468 28.5855 410.356 27.9429C410.266 27.3997 410.109 26.8698 409.889 26.3654C409.72 25.965 409.47 25.6038 409.155 25.3045C408.891 25.0547 408.541 24.916 408.178 24.917C407.821 24.9185 407.478 25.0572 407.22 25.3045C406.907 25.6049 406.658 25.9658 406.489 26.3654C406.268 26.8697 406.11 27.3996 406.019 27.9429C405.908 28.5857 405.854 29.2371 405.857 29.8894C405.853 30.5388 405.908 31.1871 406.019 31.8267C406.109 32.3643 406.267 32.8881 406.489 33.3858C406.66 33.7819 406.909 34.1395 407.22 34.4375C407.478 34.6848 407.821 34.8234 408.178 34.8249ZM422.916 25.569C422.921 26.0398 423.177 26.4718 423.589 26.7006C424.117 27.0332 424.68 27.3065 425.268 27.5155C425.941 27.7676 426.669 28.0321 427.458 28.3119C428.223 28.5794 428.957 28.9311 429.645 29.3605C430.307 29.7738 430.879 30.3179 431.324 30.9596C431.795 31.6832 432.03 32.5352 431.997 33.3981C431.997 33.9934 431.854 34.58 431.579 35.1078C431.275 35.6811 430.843 36.1766 430.317 36.5562C429.667 37.0193 428.939 37.362 428.167 37.5679C427.175 37.8339 426.151 37.9602 425.124 37.9431C424.663 37.9431 424.157 37.9215 423.607 37.8816C423.052 37.8398 422.501 37.7586 421.958 37.6386C421.413 37.5176 420.879 37.3531 420.361 37.1466C419.865 36.9558 419.405 36.6846 418.997 36.344C418.606 36.0129 418.283 35.6074 418.048 35.1509C417.801 34.643 417.679 34.083 417.692 33.518C417.692 33.4504 417.708 33.3028 417.735 33.0721C417.769 32.8152 417.848 32.5664 417.969 32.3372C418.113 32.0614 418.324 31.8266 418.583 31.6545C418.924 31.4352 419.326 31.3277 419.731 31.347C420.143 31.3449 420.549 31.4431 420.914 31.633C421.289 31.8296 421.64 32.069 421.961 32.3464C422.294 32.6348 422.61 32.9429 422.907 33.269L423.742 34.1915C423.969 34.4467 424.215 34.6851 424.476 34.9049C424.66 35.0764 424.898 35.1776 425.149 35.1909C425.514 35.1942 425.875 35.1143 426.205 34.9572C426.494 34.8535 426.688 34.5816 426.693 34.2745C426.697 33.9426 426.561 33.6245 426.319 33.3981C426.021 33.1215 425.681 32.8942 425.311 32.7247C424.847 32.5043 424.37 32.3103 423.883 32.1435C423.355 31.959 422.813 31.7591 422.256 31.5438C421.7 31.3256 421.156 31.0761 420.628 30.7966C420.108 30.5252 419.629 30.1826 419.203 29.7787C418.288 28.9165 417.786 27.7029 417.824 26.4454C417.825 25.8532 417.968 25.2699 418.242 24.7448C418.543 24.1671 418.976 23.6679 419.504 23.2873C420.154 22.8235 420.882 22.4808 421.654 22.2756C422.646 22.0096 423.67 21.8833 424.697 21.9004C425.443 21.9049 426.188 21.9593 426.927 22.0634C427.688 22.1661 428.43 22.3849 429.126 22.7122C429.794 23.0236 430.38 23.4882 430.836 24.0683C431.323 24.7283 431.581 25.5296 431.57 26.35C431.563 26.4799 431.549 26.6093 431.527 26.7375C431.443 27.2414 431.131 27.6782 430.683 27.9214C430.328 28.1017 429.931 28.1855 429.534 28.1643C429.093 28.1726 428.655 28.0855 428.25 27.9091C427.877 27.7437 427.531 27.524 427.222 27.2572C426.923 26.9994 426.648 26.7165 426.398 26.4115L425.704 25.5659C425.521 25.3297 425.315 25.1115 425.09 24.914C424.923 24.7573 424.705 24.6666 424.476 24.6587C424.11 24.6553 423.747 24.7353 423.417 24.8924C423.125 24.9912 422.925 25.2609 422.916 25.569Z" fill="#424242"></path>
<path fill-rule="evenodd" clip-rule="evenodd" d="M52.0595 52.9808C34.1921 64.7815 20.7982 64.4814 4.83526 30.1536C-1.85996 15.7555 -2.547 8.38536 8.84936 4.09518C24.436 -1.77204 35.2681 -1.31524 47.9471 5.34002C74.1838 19.1128 86.1048 30.4952 52.0595 52.9808Z" fill="#2E2E2E"></path>
<path fill-rule="evenodd" clip-rule="evenodd" d="M58.0457 18.8334C50.961 19.402 45.5263 23.1137 40.925 28.409C40.581 28.8049 40.2467 29.2039 39.9218 29.6078C38.4959 28.276 37.112 26.8986 35.7634 25.4872C35.598 25.3142 35.4301 25.1411 35.2613 24.9671C35.3039 24.9113 35.3479 24.8564 35.39 24.8005C37.6376 21.8209 39.9502 17.7814 37.8783 14.0711C36.0648 10.8241 31.8594 10.614 29.3554 13.1783C26.5818 16.018 27.4347 20.5375 29.4586 23.5245C29.8159 24.0511 30.202 24.5632 30.5998 25.069C29.8462 25.8649 29.05 26.6193 28.2123 27.3124C24.6596 30.252 20.0382 32.0995 15.4193 31.1631C13.2212 30.7172 12.2807 34.1229 14.4896 34.5703C21.5572 36.0035 28.085 32.6942 32.9017 27.7144C34.4695 29.367 36.1553 30.9238 37.7765 32.4213C37.8167 32.4579 37.8573 32.493 37.8974 32.5296C37.7594 32.7654 37.615 32.9958 37.4863 33.24C36.6085 34.911 35.5911 36.7293 35.1067 38.5659C34.0776 42.464 36.8336 45.2893 40.67 44.8652C44.0607 44.4904 48.1692 42.2316 47.8003 38.2356C47.6466 36.5666 46.5696 35.2501 45.3359 34.2159C44.4086 33.4382 43.4701 32.6813 42.5423 31.9106C44.2021 29.7052 46.204 27.7233 48.3425 26.0884C51.1968 23.9062 54.4808 22.6535 58.0457 22.3672C60.2747 22.1883 60.2938 18.653 58.0457 18.8334ZM52.0595 52.9808C34.1921 64.7815 20.7982 64.4814 4.83526 30.1536C-1.85996 15.7555 -2.547 8.38536 8.84936 4.09518C24.436 -1.77204 35.2681 -1.31524 47.9471 5.34002C74.1838 19.1128 86.1048 30.4952 52.0595 52.9808ZM31.8285 15.6769C30.6174 16.9692 31.0373 19.0762 31.74 20.5054C32.0556 21.1466 32.4505 21.7423 32.886 22.3123C32.9134 22.2743 32.9442 22.2382 32.9716 22.2001C34.1241 20.585 35.8152 18.2511 34.9917 16.148C34.4108 14.6644 32.8567 14.5799 31.8285 15.6769ZM42.5168 36.4361C43.1045 36.9102 44.0309 37.5163 44.2653 38.287C44.5745 39.3054 43.6878 40.1162 42.8961 40.5597C41.9546 41.0867 39.7501 41.9212 38.7229 41.1648C37.4242 40.2082 39.5592 36.9285 40.051 35.9279C40.2247 35.5739 40.4185 35.2278 40.6113 34.8813C41.2421 35.4033 41.8772 35.921 42.5168 36.4361Z" fill="#FFEE00"></path>
</svg>