<svg width="987" height="617" viewBox="0 0 987 617" fill="none" xmlns="http://www.w3.org/2000/svg" xmlns:xlink="http://www.w3.org/1999/xlink">
<rect width="987" height="617" fill="url(#pattern0_2409_1396)"></rect>
<g clip-path="url(#clip0_2409_1396)">
<mask id="mask0_2409_1396" style="mask-type:luminance" maskUnits="userSpaceOnUse" x="268" y="241" width="450" height="207">
<path d="M718 241H268V448H718V241Z" fill="white"></path>
</mask>
<g mask="url(#mask0_2409_1396)">
<g filter="url(#filter0_d_2409_1396)">
<path d="M513.271 321.142C490.321 336.32 473.117 335.934 452.613 291.783C444.013 273.264 443.131 263.785 457.769 258.267C477.79 250.721 491.703 251.308 507.989 259.868C541.689 277.582 557.001 292.222 513.271 321.142Z" fill="black"></path>
</g>
<path d="M513.271 321.142C490.321 336.32 473.117 335.934 452.613 291.783C444.013 273.264 443.131 263.785 457.769 258.267C477.79 250.721 491.703 251.308 507.989 259.868C541.689 277.582 557.001 292.222 513.271 321.142Z" fill="#2E2E2E"></path>
<path fill-rule="evenodd" clip-rule="evenodd" d="M520.96 277.223C511.86 277.954 504.879 282.728 498.969 289.539C498.527 290.048 498.098 290.561 497.681 291.081C495.849 289.368 494.071 287.596 492.339 285.781C492.127 285.558 491.911 285.336 491.694 285.112C491.749 285.04 491.806 284.97 491.86 284.898C494.746 281.065 497.717 275.87 495.056 271.098C492.726 266.922 487.325 266.651 484.108 269.949C480.546 273.602 481.641 279.415 484.241 283.257C484.7 283.934 485.196 284.592 485.707 285.243C484.739 286.267 483.716 287.237 482.64 288.128C478.077 291.909 472.141 294.285 466.208 293.081C463.384 292.508 462.176 296.888 465.014 297.463C474.092 299.307 482.477 295.05 488.663 288.645C490.677 290.771 492.843 292.773 494.925 294.699C494.977 294.746 495.029 294.791 495.08 294.839C494.903 295.142 494.718 295.438 494.552 295.752C493.425 297.901 492.118 300.24 491.496 302.602C490.174 307.616 493.714 311.25 498.642 310.704C502.997 310.222 508.274 307.317 507.8 302.178C507.603 300.031 506.219 298.338 504.635 297.007C503.444 296.007 502.238 295.034 501.046 294.042C503.178 291.206 505.75 288.657 508.497 286.554C512.163 283.747 516.381 282.136 520.96 281.768C523.823 281.538 523.848 276.991 520.96 277.223ZM513.271 321.142C490.321 336.32 473.117 335.934 452.613 291.783C444.013 273.264 443.131 263.785 457.769 258.267C477.79 250.721 491.703 251.308 507.989 259.868C541.689 277.582 557.001 292.222 513.271 321.142ZM487.285 273.163C485.729 274.825 486.269 277.535 487.171 279.373C487.577 280.198 488.084 280.964 488.643 281.697C488.678 281.649 488.718 281.602 488.753 281.553C490.234 279.476 492.406 276.474 491.348 273.769C490.602 271.861 488.606 271.752 487.285 273.163ZM501.014 299.863C501.769 300.473 502.958 301.252 503.26 302.244C503.657 303.553 502.518 304.596 501.501 305.167C500.292 305.844 497.46 306.918 496.141 305.945C494.472 304.715 497.215 300.496 497.846 299.209C498.07 298.754 498.319 298.309 498.566 297.863C499.376 298.535 500.192 299.2 501.014 299.863Z" fill="#FFEE00"></path>
<path d="M304.119 383.194C304.479 383.541 304.89 383.829 305.338 384.049C305.77 384.258 306.181 384.508 306.564 384.797C306.957 385.14 307.16 385.653 307.107 386.173C307.107 386.731 306.722 387.276 305.951 387.821C305.052 388.418 304.065 388.869 303.027 389.159C301.774 389.521 300.482 389.734 299.18 389.793C297.86 389.871 296.536 389.714 295.27 389.33C294.064 388.969 292.975 388.295 292.112 387.377C291.177 386.318 290.65 384.957 290.627 383.542H290.583V372.715C290.552 371.543 290.514 370.433 290.469 369.381C290.446 368.459 290.33 367.541 290.122 366.643C289.98 365.968 289.681 365.336 289.25 364.798C288.832 364.336 288.229 364.087 287.608 364.12C287.045 364.089 286.497 364.304 286.105 364.709C285.735 365.111 285.446 365.58 285.252 366.091C285.048 366.611 284.916 367.158 284.86 367.714C284.806 368.164 284.776 368.617 284.772 369.071V381.393C284.767 381.899 284.91 382.395 285.182 382.82C285.469 383.253 285.872 383.596 286.345 383.809H286.389C286.764 383.947 287.117 384.139 287.437 384.379C287.713 384.599 287.956 384.857 288.157 385.146C288.386 385.488 288.501 385.894 288.486 386.306C288.51 387.021 288.182 387.701 287.608 388.125C286.925 388.628 286.143 388.98 285.315 389.159C284.246 389.41 283.158 389.571 282.062 389.64C280.837 389.729 279.573 389.774 278.272 389.774C276.971 389.774 275.6 389.729 274.362 389.64C273.258 389.573 272.161 389.412 271.084 389.159C270.267 388.986 269.499 388.633 268.835 388.125C268.285 387.686 267.975 387.011 268.002 386.306C267.995 385.954 268.08 385.607 268.248 385.298C268.396 385.022 268.586 384.769 268.81 384.55C269.015 384.36 269.245 384.198 269.492 384.068C269.726 383.954 269.915 383.866 270.061 383.809C270.442 383.683 270.787 383.465 271.065 383.175C271.508 382.698 271.757 382.071 271.76 381.419V365.743C271.823 365.129 271.626 364.517 271.217 364.056C270.85 363.715 270.437 363.427 269.991 363.201C269.568 362.981 269.16 362.731 268.772 362.453C268.376 362.12 268.17 361.612 268.223 361.096C268.259 360.234 268.705 359.442 269.423 358.966C270.337 358.279 271.348 357.732 272.423 357.343C273.676 356.878 274.97 356.534 276.289 356.317C277.54 356.093 278.808 355.974 280.079 355.962C280.919 355.933 281.759 356.038 282.567 356.272C283.08 356.426 283.559 356.678 283.976 357.014C284.274 357.271 284.493 357.607 284.608 357.984C284.701 358.281 284.752 358.591 284.759 358.903C284.752 359.008 284.813 359.105 284.911 359.144C284.998 359.197 285.108 359.197 285.195 359.144C286.37 358.367 287.645 357.755 288.985 357.324C290.517 356.829 292.119 356.585 293.729 356.602C295.568 356.515 297.401 356.874 299.072 357.648C300.306 358.277 301.331 359.253 302.022 360.456C302.704 361.696 303.134 363.06 303.285 364.468C303.46 366.02 303.546 367.579 303.544 369.14H303.589V381.546C303.536 382.144 303.727 382.739 304.119 383.194ZM339.005 376.481C339.439 376.82 339.791 377.254 340.035 377.749C340.404 378.504 340.576 379.342 340.534 380.183C340.51 381.482 340.125 382.749 339.422 383.84C338.611 385.124 337.547 386.229 336.296 387.086C334.82 388.102 333.199 388.886 331.489 389.412C329.48 390.032 327.388 390.336 325.286 390.312C322.951 390.328 320.639 389.864 318.489 388.949C314.336 387.203 311.018 383.912 309.229 379.764C307.393 375.474 307.393 370.616 309.229 366.326C311.011 362.168 314.331 358.866 318.489 357.115C320.638 356.198 322.951 355.732 325.286 355.746C327.122 355.754 328.95 355.997 330.724 356.469C332.511 356.922 334.217 357.653 335.778 358.637C337.257 359.567 338.518 360.808 339.473 362.275C340.428 363.79 340.92 365.553 340.888 367.346C340.955 368.508 340.666 369.663 340.06 370.655C339.495 371.456 338.745 372.109 337.875 372.557C336.89 373.072 335.85 373.469 334.773 373.742C333.611 374.053 332.424 374.414 331.211 374.839C329.969 375.278 328.771 375.829 327.629 376.487C326.395 377.192 325.319 378.146 324.471 379.289C324.311 379.404 324.234 379.603 324.275 379.796C324.328 379.993 324.492 380.139 324.692 380.17C325.328 380.468 326.005 380.667 326.701 380.76C327.484 380.865 328.273 380.915 329.063 380.912C330.041 380.916 331.011 380.737 331.925 380.386C332.807 380.05 333.654 379.625 334.451 379.118C335.148 378.678 335.811 378.187 336.435 377.647C337.003 377.153 337.451 376.741 337.767 376.417C337.937 376.255 338.166 376.169 338.4 376.181C338.634 376.193 338.853 376.302 339.005 376.481ZM325.286 362.085C324.794 362.11 324.312 362.228 323.865 362.434C323.229 362.724 322.67 363.158 322.229 363.701C321.635 364.425 321.175 365.249 320.871 366.136C320.458 367.379 320.266 368.686 320.302 369.996C320.302 370.845 320.302 371.638 320.372 372.386C320.41 373.088 320.505 373.785 320.656 374.471C320.699 374.72 320.904 374.908 321.155 374.928C321.405 374.981 321.66 374.865 321.787 374.642C322.336 373.651 322.986 372.718 323.726 371.86C324.471 370.998 325.179 370.167 325.848 369.381C326.452 368.678 327.013 367.939 327.528 367.169C327.946 366.586 328.182 365.89 328.204 365.172C328.196 364.834 328.13 364.499 328.008 364.183C327.881 363.821 327.697 363.481 327.465 363.175C327.215 362.86 326.903 362.599 326.549 362.408C326.161 362.197 325.727 362.086 325.286 362.085ZM361.903 383.853C362.293 383.989 362.661 384.181 362.995 384.423C363.271 384.643 363.514 384.901 363.716 385.19C363.944 385.533 364.059 385.939 364.044 386.351C364.065 387.064 363.737 387.744 363.166 388.17C362.483 388.672 361.701 389.024 360.873 389.203C359.796 389.456 358.699 389.617 357.595 389.685C356.332 389.774 355.068 389.812 353.773 389.812C352.479 389.812 351.102 389.774 349.864 389.685C348.767 389.619 347.679 389.457 346.61 389.203C345.8 389.029 345.038 388.676 344.381 388.17C343.83 387.731 343.521 387.055 343.547 386.351C343.529 385.901 343.653 385.457 343.901 385.083C344.109 384.771 344.374 384.502 344.684 384.29C345.056 384.065 345.452 383.882 345.865 383.745C346.293 383.518 346.649 383.175 346.895 382.756C347.139 382.337 347.266 381.86 347.261 381.374V365.787C347.325 365.171 347.127 364.557 346.718 364.094C346.352 363.764 345.949 363.477 345.518 363.239C345.094 363.019 344.69 362.762 344.311 362.472C343.92 362.128 343.718 361.616 343.768 361.096C343.804 360.234 344.251 359.442 344.968 358.966C345.877 358.281 346.888 357.742 347.962 357.369C349.212 356.918 350.499 356.578 351.809 356.355C353.061 356.135 354.328 356.018 355.599 356.006C356.191 356.005 356.782 356.049 357.368 356.139C357.887 356.211 358.389 356.374 358.852 356.621C359.265 356.847 359.616 357.171 359.875 357.565C360.156 358.017 360.295 358.542 360.273 359.074V381.393C360.269 381.908 360.421 382.413 360.709 382.839C361.003 383.284 361.417 383.636 361.903 383.853ZM359.85 348.355C359.852 349.129 359.679 349.894 359.344 350.592C359.012 351.286 358.544 351.905 357.967 352.412C357.36 352.937 356.665 353.352 355.915 353.635C354.311 354.254 352.535 354.254 350.931 353.635C350.182 353.349 349.487 352.935 348.878 352.412C348.302 351.905 347.833 351.286 347.501 350.592C347.169 349.894 346.998 349.129 347.002 348.355C346.996 347.587 347.167 346.827 347.501 346.136C347.828 345.452 348.287 344.84 348.853 344.336C350.797 342.645 353.507 342.159 355.915 343.068C356.667 343.352 357.362 343.768 357.967 344.298C358.541 344.798 359.01 345.408 359.344 346.092C359.685 346.79 359.858 347.559 359.85 348.336V348.355ZM401.659 357.058C401.341 357.15 401.029 357.26 400.724 357.388C400.292 357.563 399.871 357.762 399.461 357.984C399.022 358.222 398.599 358.491 398.197 358.789C397.787 359.088 397.414 359.435 397.086 359.822C396.988 359.916 396.937 360.049 396.946 360.184C396.954 360.32 397.022 360.444 397.13 360.526C398.114 361.413 398.91 362.491 399.467 363.695C400.005 364.863 400.281 366.136 400.276 367.422C400.28 368.957 399.888 370.466 399.139 371.803C398.324 373.233 397.2 374.462 395.848 375.397C394.277 376.486 392.535 377.3 390.693 377.806C388.489 378.418 386.209 378.712 383.922 378.68C382.009 378.683 380.103 378.471 378.237 378.046C378.018 377.991 377.786 378.037 377.606 378.173C377.412 378.303 377.284 378.511 377.258 378.744C377.202 379.197 377.438 379.637 377.846 379.84C378.571 380.201 379.373 380.382 380.183 380.367C380.975 380.424 381.771 380.424 382.564 380.367C383.309 380.309 384.055 380.24 384.813 380.151C385.571 380.062 386.386 379.993 387.264 379.948C388.142 379.904 389.158 379.916 390.276 379.948C391.739 380.034 393.184 380.306 394.578 380.76C395.902 381.176 397.143 381.819 398.248 382.661C399.31 383.492 400.195 384.529 400.85 385.71C401.544 387.025 401.908 388.489 401.911 389.976C402.042 391.484 401.826 393.003 401.28 394.414C400.732 395.766 399.923 396.997 398.899 398.033C397.791 399.14 396.532 400.083 395.159 400.835C393.684 401.654 392.133 402.329 390.529 402.851C388.861 403.398 387.149 403.804 385.413 404.062C383.7 404.319 381.971 404.45 380.24 404.455C378.017 404.5 375.803 404.181 373.683 403.51C372.042 402.984 370.506 402.175 369.141 401.12C368.039 400.27 367.136 399.188 366.495 397.951C365.959 396.911 365.669 395.761 365.648 394.591C365.61 393.356 365.936 392.137 366.583 391.086C367.204 390.129 367.996 389.298 368.92 388.633C369.054 388.562 369.144 388.429 369.16 388.278C369.172 388.12 369.096 387.97 368.965 387.885C368.159 387.08 367.527 386.117 367.107 385.057C366.673 383.904 366.503 382.667 366.608 381.438C366.651 380.688 366.805 379.949 367.063 379.245C367.299 378.626 367.609 378.039 367.985 377.495C368.339 376.982 368.764 376.523 369.249 376.132C369.692 375.766 370.158 375.429 370.645 375.124C370.796 375.038 370.897 374.884 370.914 374.71C370.932 374.536 370.864 374.364 370.733 374.249C368.759 372.53 367.627 370.033 367.632 367.41C367.628 365.874 368.02 364.363 368.769 363.023C369.572 361.59 370.691 360.361 372.041 359.429C373.605 358.34 375.341 357.524 377.176 357.014C379.374 356.404 381.648 356.109 383.928 356.139C385.854 356.132 387.774 356.344 389.651 356.773C389.973 356.83 390.163 356.716 390.22 356.424C390.329 355.716 390.541 355.029 390.851 354.383C391.173 353.719 391.6 353.111 392.115 352.583C392.666 352.027 393.306 351.568 394.01 351.226C394.843 350.834 395.739 350.589 396.656 350.504C397.394 350.412 398.142 350.463 398.861 350.656C399.507 350.83 400.119 351.111 400.673 351.486C401.191 351.846 401.636 352.3 401.987 352.824C402.333 353.346 402.583 353.925 402.726 354.535C402.884 355.105 402.862 355.709 402.663 356.266C402.459 356.664 402.092 356.953 401.659 357.058ZM390.472 392.36C390.152 391.988 389.697 391.76 389.209 391.726C388.457 391.629 387.698 391.6 386.941 391.637L383.707 391.745C382.469 391.787 381.063 391.766 379.488 391.682C378.73 391.625 378.016 391.542 377.347 391.441C376.677 391.339 376.007 391.212 375.338 391.067C375.022 390.979 374.683 391.044 374.422 391.244C373.681 391.68 373.087 392.33 372.717 393.108C372.509 393.559 372.377 394.04 372.325 394.534C372.332 395.157 372.653 395.735 373.178 396.068C373.811 396.506 374.51 396.838 375.25 397.051C376.076 397.3 376.921 397.484 377.776 397.602C378.507 397.706 379.243 397.764 379.981 397.773C381.506 397.79 383.029 397.659 384.528 397.38C385.693 397.171 386.829 396.827 387.914 396.353C388.699 396.018 389.416 395.541 390.03 394.946C390.475 394.544 390.756 393.991 390.82 393.393C390.807 393.152 390.756 392.914 390.668 392.689L390.472 392.36ZM383.922 372.975C384.473 372.994 385.016 372.834 385.47 372.519C385.908 372.195 386.267 371.774 386.518 371.289C386.82 370.734 387.033 370.135 387.15 369.514C387.282 368.836 387.347 368.146 387.346 367.454C387.349 366.748 387.284 366.043 387.15 365.35C387.033 364.726 386.82 364.125 386.518 363.568C386.267 363.085 385.908 362.667 385.47 362.345C385.018 362.025 384.474 361.862 383.922 361.882C383.382 361.868 382.852 362.03 382.412 362.345C381.976 362.668 381.617 363.087 381.364 363.568C381.065 364.127 380.852 364.727 380.732 365.35C380.602 366.043 380.536 366.748 380.536 367.454C380.538 368.145 380.603 368.835 380.732 369.514C380.852 370.135 381.065 370.733 381.364 371.289C381.617 371.773 381.975 372.193 382.412 372.519C382.854 372.829 383.383 372.989 383.922 372.975ZM440.354 383.168C440.718 383.509 441.129 383.797 441.573 384.024C442.003 384.245 442.413 384.504 442.798 384.797C443.189 385.142 443.391 385.654 443.341 386.173C443.341 386.731 442.956 387.27 442.186 387.796C441.282 388.381 440.296 388.825 439.261 389.114C438.008 389.477 436.717 389.69 435.414 389.748C434.094 389.83 432.77 389.673 431.504 389.285C430.297 388.933 429.206 388.261 428.346 387.339C427.427 386.265 426.895 384.912 426.836 383.498H426.799V372.494C426.767 371.327 426.729 370.237 426.685 369.229C426.657 368.334 426.541 367.445 426.337 366.573C426.198 365.916 425.906 365.301 425.485 364.779C425.068 364.335 424.474 364.103 423.868 364.145C423.348 364.125 422.84 364.304 422.446 364.646C422.083 364.987 421.793 365.399 421.594 365.857C421.387 366.338 421.249 366.846 421.183 367.365C421.107 367.911 421.057 368.367 421.032 368.747V381.736C421.131 382.65 421.716 383.438 422.56 383.796H422.604C422.989 383.932 423.356 384.115 423.697 384.341C423.975 384.55 424.219 384.803 424.417 385.089C424.646 385.431 424.76 385.837 424.746 386.249C424.767 386.963 424.439 387.642 423.868 388.068C423.183 388.572 422.403 388.93 421.575 389.121C420.5 389.389 419.402 389.55 418.297 389.602C417.033 389.678 415.77 389.716 414.475 389.716C413.18 389.716 411.898 389.678 410.685 389.602C409.588 389.549 408.498 389.388 407.432 389.121C406.609 388.933 405.835 388.575 405.158 388.068C404.598 387.635 404.281 386.958 404.305 386.249C404.299 385.895 404.39 385.546 404.571 385.241C404.864 384.734 405.305 384.33 405.834 384.081L406.333 383.84C406.384 383.803 406.447 383.787 406.51 383.796C406.971 383.567 407.363 383.219 407.647 382.788C407.935 382.362 408.087 381.858 408.083 381.343V355.86C408.142 355.247 407.945 354.636 407.539 354.174C407.17 353.837 406.758 353.549 406.314 353.318C405.883 353.101 405.473 352.845 405.089 352.551C404.698 352.204 404.496 351.691 404.545 351.169C404.583 350.309 405.029 349.519 405.746 349.046C406.656 348.361 407.666 347.82 408.74 347.442C409.989 346.99 411.276 346.653 412.586 346.434C413.838 346.214 415.106 346.098 416.376 346.085C416.97 346.084 417.564 346.129 418.151 346.219C418.676 346.293 419.184 346.456 419.655 346.7C420.076 346.917 420.431 347.244 420.684 347.645C420.949 348.102 421.078 348.625 421.057 349.154V358.662C421.042 358.815 421.119 358.961 421.253 359.036C421.378 359.115 421.538 359.115 421.663 359.036C422.828 358.294 424.085 357.709 425.403 357.299C426.896 356.836 428.451 356.607 430.014 356.621C431.825 356.536 433.63 356.891 435.275 357.654C436.497 358.269 437.519 359.218 438.225 360.393C438.91 361.607 439.34 362.948 439.488 364.335C439.68 365.864 439.775 367.403 439.773 368.944V381.482C439.718 382.102 439.929 382.715 440.354 383.168ZM472.025 356.843C473.634 356.999 475.202 357.443 476.655 358.155C478.188 358.899 479.573 359.917 480.742 361.16C481.989 362.495 482.982 364.048 483.672 365.743C484.441 367.679 484.819 369.75 484.784 371.834C484.786 374.108 484.34 376.359 483.47 378.459C482.604 380.588 481.329 382.527 479.718 384.164C478.004 385.883 475.97 387.247 473.73 388.176C471.18 389.222 468.444 389.737 465.689 389.691C464.536 389.707 463.386 389.551 462.278 389.228C461.345 388.944 460.461 388.516 459.657 387.961C459.568 387.881 459.451 387.841 459.332 387.849C459.213 387.857 459.102 387.914 459.025 388.005C458.126 388.675 457.098 389.152 456.006 389.406C454.876 389.673 453.718 389.805 452.557 389.799C451.534 389.799 450.549 389.799 449.582 389.736C448.729 389.706 447.881 389.581 447.056 389.361C446.386 389.198 445.769 388.866 445.262 388.398C444.797 387.921 444.552 387.27 444.586 386.604C444.569 386.19 444.684 385.782 444.914 385.438C445.114 385.147 445.357 384.888 445.634 384.671C445.97 384.429 446.338 384.237 446.727 384.1L447.119 383.992C447.308 383.945 447.492 383.879 447.668 383.796C447.857 383.706 448.022 383.571 448.148 383.403C448.29 383.18 448.358 382.919 448.344 382.655V355.397C448.405 354.783 448.206 354.171 447.795 353.711C447.428 353.372 447.018 353.085 446.576 352.856C446.15 352.638 445.741 352.39 445.35 352.114C444.954 351.779 444.75 351.268 444.807 350.751C444.843 349.891 445.29 349.1 446.007 348.627C446.916 347.935 447.926 347.387 449.001 347.005C450.245 346.536 451.531 346.19 452.841 345.971C454.093 345.749 455.361 345.632 456.631 345.623C457.223 345.623 457.814 345.665 458.4 345.75C458.92 345.823 459.422 345.988 459.884 346.238C460.299 346.461 460.652 346.783 460.914 347.176C461.192 347.63 461.329 348.158 461.306 348.691V359.562C461.307 359.713 461.392 359.85 461.527 359.917C461.665 360.005 461.845 359.987 461.963 359.873C462.487 359.492 463.062 359.099 463.687 358.687C464.364 358.254 465.081 357.887 465.828 357.591C466.71 357.249 467.628 357.007 468.563 356.868C469.712 356.716 470.874 356.708 472.025 356.843ZM465.209 383.542C465.858 383.53 466.489 383.325 467.022 382.953C467.678 382.496 468.223 381.896 468.614 381.197C469.125 380.314 469.508 379.362 469.751 378.37C470.057 377.126 470.203 375.848 470.187 374.566C470.202 373.321 470.071 372.079 469.795 370.864C469.583 369.896 469.23 368.965 468.746 368.101C468.372 367.422 467.849 366.837 467.218 366.389C466.681 366.011 466.042 365.805 465.386 365.8C464.759 365.784 464.138 365.919 463.573 366.193C463.089 366.44 462.659 366.783 462.31 367.201C461.974 367.617 461.721 368.095 461.565 368.608C461.408 369.119 461.327 369.651 461.325 370.186V378.649C461.301 379.482 461.427 380.313 461.697 381.102C461.897 381.664 462.209 382.179 462.613 382.617C462.964 382.968 463.399 383.224 463.876 383.359C464.304 383.478 464.746 383.54 465.19 383.542H465.209ZM505.692 355.917C508.185 355.893 510.66 356.34 512.987 357.236C515.147 358.061 517.129 359.297 518.824 360.874C520.47 362.424 521.791 364.288 522.708 366.357C524.603 370.681 524.603 375.605 522.708 379.929C521.788 381.982 520.467 383.829 518.824 385.362C517.125 386.929 515.144 388.157 512.987 388.981C508.302 390.735 503.144 390.735 498.459 388.981C496.302 388.157 494.322 386.929 492.623 385.362C490.981 383.828 489.661 381.981 488.738 379.929C486.843 375.605 486.843 370.681 488.738 366.357C489.659 364.29 490.979 362.426 492.623 360.874C494.318 359.297 496.299 358.061 498.459 357.236C500.766 356.345 503.22 355.898 505.692 355.917ZM505.692 383.764C506.472 383.767 507.223 383.467 507.789 382.927C508.461 382.291 508.996 381.523 509.362 380.671C509.836 379.593 510.173 378.46 510.366 377.298C510.608 375.924 510.727 374.53 510.72 373.134C510.726 371.729 510.608 370.327 510.366 368.944C510.171 367.774 509.834 366.633 509.362 365.546C508.999 364.687 508.464 363.912 507.789 363.27C507.223 362.731 506.472 362.431 505.692 362.434C504.926 362.437 504.19 362.737 503.639 363.27C502.964 363.912 502.428 364.687 502.066 365.546C501.594 366.633 501.256 367.774 501.062 368.944C500.822 370.327 500.706 371.73 500.714 373.134C500.712 374.53 500.834 375.924 501.081 377.298C501.275 378.454 501.612 379.58 502.085 380.652C502.45 381.504 502.986 382.272 503.658 382.908C504.201 383.445 504.93 383.751 505.692 383.764ZM536.908 356.183C537.5 356.182 538.091 356.226 538.677 356.317C539.196 356.388 539.698 356.551 540.161 356.798C540.575 357.022 540.929 357.344 541.19 357.736C541.469 358.191 541.605 358.719 541.582 359.251V359.822C541.576 359.939 541.641 360.048 541.747 360.097C541.853 360.146 541.978 360.125 542.062 360.044C543.326 358.915 544.767 358.003 546.326 357.343C547.925 356.638 549.652 356.274 551.398 356.272C552.355 356.281 553.307 356.406 554.234 356.646C555.25 356.893 556.213 357.323 557.076 357.914C557.971 358.522 558.718 359.323 559.262 360.259C559.875 361.362 560.176 362.611 560.134 363.873C560.116 364.482 560.059 365.09 559.963 365.692C559.824 366.551 559.527 367.377 559.085 368.126C558.578 368.994 557.875 369.73 557.032 370.275C555.899 370.952 554.591 371.274 553.274 371.2C552.053 371.272 550.84 370.964 549.8 370.319C549.059 369.832 548.439 369.182 547.987 368.418C547.638 367.81 547.409 367.141 547.311 366.446C547.235 365.812 547.204 365.495 547.204 365.438C547.204 365.18 547.219 364.922 547.248 364.665C547.269 364.421 547.312 364.179 547.374 363.942C547.431 363.651 547.305 363.505 546.983 363.505C546.36 363.556 545.756 363.744 545.214 364.056C544.668 364.364 544.174 364.755 543.749 365.216C543.057 365.932 542.508 366.773 542.132 367.695C541.751 368.62 541.558 369.611 541.563 370.611V381.482C541.559 381.997 541.711 382.501 541.999 382.927C542.291 383.369 542.7 383.721 543.18 383.942C543.567 384.073 543.935 384.256 544.273 384.487C544.554 384.692 544.798 384.946 544.993 385.235C545.225 385.576 545.34 385.983 545.321 386.395C545.345 387.108 545.019 387.787 544.45 388.214C543.764 388.717 542.984 389.075 542.157 389.266C541.083 389.535 539.984 389.696 538.879 389.748C537.615 389.824 536.352 389.856 535.089 389.856C533.825 389.856 532.423 389.824 531.198 389.748C530.1 389.696 529.011 389.534 527.945 389.266C527.127 389.082 526.358 388.723 525.69 388.214C525.189 387.809 524.889 387.209 524.863 386.57L524.862 386.395C524.844 385.958 524.966 385.527 525.21 385.165C525.429 384.862 525.695 384.596 525.999 384.379C526.361 384.139 526.76 383.961 527.18 383.853C528.07 383.407 528.616 382.479 528.576 381.482V365.958C528.637 365.344 528.438 364.732 528.027 364.272C527.665 363.936 527.262 363.649 526.827 363.416C526.412 363.194 526.011 362.946 525.627 362.675C525.229 362.34 525.023 361.829 525.077 361.312C525.118 360.451 525.566 359.662 526.284 359.188C527.194 358.498 528.203 357.95 529.278 357.565C530.521 357.097 531.807 356.751 533.118 356.532C534.369 356.31 535.637 356.193 536.908 356.183ZM571.838 346.085C572.43 346.084 573.022 346.129 573.607 346.219C574.133 346.294 574.644 346.456 575.116 346.7C575.536 346.918 575.889 347.244 576.14 347.645C576.404 348.102 576.533 348.625 576.512 349.154V358.662C576.498 358.815 576.575 358.961 576.708 359.036C576.836 359.115 576.997 359.115 577.125 359.036C578.287 358.294 579.543 357.709 580.858 357.299C582.351 356.836 583.907 356.607 585.469 356.621C587.282 356.536 589.089 356.891 590.737 357.654C591.957 358.271 592.98 359.22 593.687 360.393C594.371 361.607 594.801 362.948 594.95 364.335C595.142 365.864 595.237 367.403 595.234 368.944V381.482C595.183 382.104 595.399 382.717 595.828 383.168C596.195 383.509 596.608 383.797 597.054 384.024C597.482 384.246 597.89 384.504 598.273 384.797C598.669 385.138 598.874 385.652 598.822 386.173C598.822 386.731 598.437 387.27 597.666 387.796C596.761 388.38 595.773 388.825 594.736 389.114C593.483 389.477 592.191 389.69 590.889 389.748C589.568 389.83 588.244 389.673 586.979 389.285C585.785 388.926 584.708 388.254 583.858 387.339C582.937 386.267 582.405 384.913 582.349 383.498H582.305V372.494C582.305 371.327 582.241 370.237 582.197 369.229C582.166 368.335 582.05 367.445 581.85 366.573C581.707 365.917 581.416 365.303 580.997 364.779C580.169 363.965 578.867 363.897 577.959 364.621C577.592 364.959 577.301 365.371 577.106 365.831C576.9 366.313 576.76 366.821 576.689 367.34C576.62 367.885 576.569 368.342 576.538 368.722V381.736C576.646 382.646 577.228 383.431 578.066 383.796H578.11C578.497 383.93 578.864 384.113 579.203 384.341C579.485 384.547 579.728 384.8 579.923 385.089C580.155 385.43 580.271 385.837 580.252 386.249C580.275 386.962 579.95 387.642 579.38 388.068C578.694 388.57 577.914 388.928 577.087 389.121C576.013 389.389 574.915 389.55 573.809 389.602C572.571 389.678 571.295 389.716 569.981 389.716C568.674 389.716 567.404 389.678 566.191 389.602C565.092 389.549 564 389.388 562.932 389.121C562.111 388.933 561.338 388.575 560.664 388.068C560.104 387.635 559.787 386.958 559.812 386.249C559.805 385.896 559.895 385.547 560.071 385.241C560.229 384.97 560.43 384.726 560.664 384.519C560.854 384.344 561.066 384.197 561.296 384.081L561.801 383.84C561.852 383.803 561.916 383.787 561.978 383.796C562.436 383.565 562.826 383.217 563.109 382.788C563.399 382.363 563.553 381.858 563.551 381.343V355.86C563.612 355.246 563.412 354.634 563.001 354.174C562.633 353.835 562.221 353.547 561.776 353.318C561.347 353.101 560.939 352.845 560.557 352.551C560.161 352.208 559.956 351.692 560.007 351.169C560.048 350.309 560.496 349.519 561.214 349.046C562.121 348.359 563.129 347.818 564.202 347.442C565.451 346.99 566.738 346.653 568.048 346.434C569.3 346.215 570.568 346.098 571.838 346.085ZM617.5 355.917C619.995 355.893 622.472 356.341 624.802 357.236C626.96 358.061 628.94 359.297 630.632 360.874C632.278 362.425 633.601 364.289 634.523 366.357C636.41 370.683 636.41 375.603 634.523 379.929C633.598 381.981 632.276 383.828 630.632 385.362C628.936 386.929 626.957 388.157 624.802 388.981C620.117 390.733 614.959 390.733 610.274 388.981C608.118 388.159 606.14 386.93 604.444 385.362C602.799 383.83 601.476 381.983 600.553 379.929C598.658 375.605 598.658 370.681 600.553 366.357C601.473 364.288 602.796 362.424 604.444 360.874C606.135 359.295 608.115 358.06 610.274 357.236C612.579 356.346 615.03 355.899 617.5 355.917ZM617.5 383.764C618.281 383.768 619.033 383.468 619.597 382.927C620.27 382.291 620.805 381.523 621.17 380.671C621.648 379.601 621.987 378.474 622.181 377.318C622.418 375.942 622.534 374.549 622.528 373.153C622.533 371.749 622.417 370.347 622.181 368.963C621.987 367.792 621.648 366.651 621.17 365.565C620.808 364.706 620.272 363.931 619.597 363.289C619.033 362.748 618.281 362.448 617.5 362.453C616.734 362.456 615.999 362.756 615.447 363.289C614.772 363.931 614.237 364.706 613.875 365.565C613.402 366.652 613.065 367.793 612.87 368.963C612.631 370.346 612.514 371.749 612.523 373.153C612.519 374.543 612.64 375.93 612.883 377.298C613.077 378.454 613.414 379.58 613.887 380.652C614.252 381.504 614.788 382.272 615.46 382.908C616.005 383.446 616.736 383.753 617.5 383.764ZM657.098 355.917C659.593 355.892 662.071 356.34 664.4 357.236C666.559 358.061 668.538 359.297 670.23 360.874C671.878 362.424 673.201 364.288 674.121 366.357C676.008 370.683 676.008 375.603 674.121 379.929C673.199 381.983 671.876 383.83 670.23 385.362C668.534 386.929 666.555 388.157 664.4 388.981C659.715 390.733 654.558 390.733 649.872 388.981C647.717 388.159 645.738 386.93 644.042 385.362C642.397 383.83 641.074 381.983 640.151 379.929C638.256 375.605 638.256 370.681 640.151 366.357C641.071 364.288 642.394 362.424 644.042 360.874C645.734 359.295 647.713 358.06 649.872 357.236C652.177 356.346 654.629 355.899 657.098 355.917ZM657.098 383.764C657.881 383.767 658.634 383.468 659.202 382.927C659.87 382.289 660.403 381.521 660.768 380.671C661.246 379.601 661.586 378.474 661.779 377.318C662.016 375.942 662.132 374.549 662.126 373.153C662.132 371.749 662.015 370.347 661.779 368.963C661.585 367.792 661.246 366.651 660.768 365.565C660.406 364.707 659.873 363.933 659.202 363.289C658.634 362.749 657.881 362.449 657.098 362.453C656.332 362.456 655.597 362.756 655.046 363.289C654.37 363.931 653.835 364.706 653.473 365.565C653 366.652 652.663 367.793 652.468 368.963C652.229 370.346 652.113 371.749 652.121 373.153C652.112 374.549 652.228 375.943 652.468 377.318C652.663 378.473 653 379.599 653.473 380.671C653.838 381.523 654.373 382.291 655.046 382.927C655.597 383.461 656.332 383.761 657.098 383.764ZM714.193 380.17C714.14 380.778 714.339 381.381 714.743 381.837C715.101 382.184 715.513 382.471 715.962 382.687C716.394 382.895 716.804 383.145 717.187 383.435C717.583 383.778 717.788 384.294 717.737 384.816C717.696 385.677 717.248 386.467 716.53 386.94C715.626 387.631 714.617 388.173 713.543 388.544C712.292 388.996 711.005 389.339 709.696 389.571C708.447 389.81 707.178 389.935 705.906 389.945C705.314 389.946 704.723 389.902 704.137 389.812C703.615 389.742 703.111 389.572 702.653 389.311C702.242 389.071 701.89 388.742 701.623 388.347C701.348 387.892 701.212 387.365 701.232 386.832C701.234 386.636 701.124 386.455 700.948 386.37C700.769 386.267 700.545 386.296 700.398 386.439C699.874 386.82 699.356 387.2 698.85 387.58C698.304 387.982 697.718 388.326 697.101 388.607C696.379 388.94 695.626 389.197 694.852 389.374C693.864 389.598 692.852 389.702 691.839 389.685C690.068 389.671 688.321 389.267 686.723 388.499C685.026 387.703 683.492 386.596 682.2 385.235C680.84 383.792 679.752 382.112 678.991 380.278C678.16 378.285 677.743 376.143 677.766 373.983C677.751 371.791 678.136 369.615 678.903 367.562C679.623 365.62 680.715 363.839 682.118 362.32C683.529 360.809 685.231 359.601 687.121 358.77C689.187 357.871 691.419 357.423 693.671 357.458C695.018 357.423 696.362 357.607 697.65 358.003C698.623 358.32 699.548 358.77 700.398 359.34C700.565 359.451 700.781 359.451 700.948 359.34C701.125 359.259 701.237 359.079 701.232 358.884V355.809C701.285 355.203 701.086 354.603 700.682 354.149C700.326 353.798 699.914 353.509 699.463 353.293C699.031 353.085 698.621 352.834 698.238 352.545C697.844 352.2 697.642 351.685 697.695 351.163C697.732 350.303 698.178 349.513 698.895 349.039C699.804 348.352 700.814 347.811 701.889 347.436C703.144 346.982 704.438 346.645 705.754 346.428C707.006 346.206 708.274 346.089 709.544 346.079C710.136 346.078 710.728 346.122 711.313 346.212C711.84 346.283 712.351 346.446 712.823 346.694C713.241 346.912 713.596 347.235 713.852 347.632C714.114 348.093 714.241 348.618 714.219 349.147L714.193 380.17ZM697.139 381.66C697.765 381.674 698.387 381.539 698.952 381.267C699.435 381.018 699.865 380.676 700.215 380.259C700.554 379.837 700.807 379.352 700.96 378.833C701.116 378.312 701.197 377.772 701.2 377.229V370.04C701.2 369.66 701.2 369.128 701.2 368.437C701.186 367.737 701.069 367.042 700.853 366.376C700.638 365.694 700.245 365.081 699.716 364.602C699.03 364.055 698.164 363.788 697.29 363.854C696.643 363.872 696.018 364.094 695.503 364.487C694.862 364.956 694.326 365.554 693.93 366.243C693.414 367.124 693.031 368.077 692.793 369.071C692.488 370.315 692.342 371.593 692.357 372.874C692.343 374.12 692.466 375.363 692.723 376.582C692.929 377.555 693.276 378.493 693.753 379.365C694.123 380.052 694.646 380.645 695.282 381.096C695.835 381.472 696.49 381.669 697.158 381.66H697.139ZM393.264 422.489C393.274 423.458 393.799 424.347 394.641 424.822C395.729 425.506 396.887 426.069 398.096 426.501C399.478 427.021 400.979 427.568 402.6 428.143C404.176 428.695 405.687 429.42 407.104 430.305C408.465 431.158 409.64 432.28 410.559 433.601C411.522 435.095 412.003 436.85 411.936 438.628C411.937 439.855 411.642 441.064 411.077 442.152C410.453 443.332 409.564 444.35 408.481 445.125C407.143 446.081 405.646 446.788 404.059 447.211C402.019 447.76 399.912 448.02 397.799 447.984C396.852 447.984 395.81 447.94 394.679 447.857C393.538 447.771 392.405 447.604 391.287 447.357C390.167 447.107 389.069 446.768 388.003 446.342C386.984 445.949 386.036 445.39 385.198 444.688C384.394 444.005 383.733 443.169 383.253 442.228C382.74 441.182 382.489 440.027 382.52 438.862C382.52 438.723 382.52 438.419 382.602 437.943C382.674 437.414 382.836 436.902 383.082 436.428C383.378 435.86 383.813 435.376 384.345 435.021C385.05 434.569 385.878 434.347 386.714 434.387C387.558 434.382 388.391 434.584 389.14 434.977C389.912 435.382 390.634 435.875 391.293 436.447C391.981 437.042 392.633 437.677 393.245 438.349L394.963 440.251C395.427 440.778 395.929 441.27 396.467 441.721C396.844 442.075 397.334 442.283 397.85 442.311C398.603 442.318 399.349 442.154 400.029 441.829C400.623 441.615 401.023 441.055 401.033 440.422C401.041 439.736 400.759 439.08 400.257 438.615C399.645 438.044 398.945 437.575 398.185 437.227C397.231 436.773 396.252 436.373 395.254 436.029C394.167 435.648 393.052 435.236 391.906 434.793C390.76 434.343 389.64 433.829 388.552 433.252C387.483 432.693 386.496 431.987 385.621 431.154C384.751 430.321 384.048 429.33 383.549 428.232C383.006 426.988 382.74 425.64 382.772 424.283C382.779 423.063 383.073 421.861 383.632 420.777C384.253 419.588 385.142 418.559 386.228 417.773C387.566 416.819 389.063 416.113 390.649 415.687C392.69 415.139 394.797 414.879 396.909 414.914C398.443 414.923 399.975 415.035 401.495 415.25C403.069 415.455 404.603 415.902 406.042 416.575C407.416 417.217 408.619 418.174 409.554 419.37C410.558 420.729 411.089 422.382 411.064 424.074C411.053 424.341 411.026 424.608 410.982 424.872C410.809 425.911 410.168 426.811 409.245 427.313C408.512 427.684 407.696 427.856 406.876 427.814C405.969 427.831 405.068 427.651 404.236 427.287C403.471 426.946 402.76 426.493 402.126 425.944C401.511 425.412 400.943 424.829 400.427 424.2L399.006 422.457C398.616 421.969 398.18 421.519 397.705 421.113C397.362 420.789 396.912 420.602 396.441 420.587C395.688 420.579 394.943 420.744 394.262 421.069C393.666 421.286 393.268 421.853 393.264 422.489ZM449.456 415.275C450.022 415.275 450.588 415.317 451.149 415.402C451.648 415.468 452.132 415.625 452.576 415.865C452.971 416.079 453.308 416.388 453.555 416.765C453.825 417.199 453.957 417.705 453.934 418.216V434.939C453.934 438.247 455.092 439.902 457.408 439.902C457.925 439.914 458.434 439.775 458.874 439.503C459.302 439.228 459.656 438.852 459.903 438.406C460.182 437.908 460.38 437.369 460.491 436.809C460.614 436.182 460.675 435.545 460.674 434.907H460.718C460.718 433.563 460.674 432.048 460.674 430.368V424.663C460.734 424.074 460.544 423.487 460.15 423.047C459.805 422.724 459.418 422.449 459 422.229C458.601 422.018 458.216 421.778 457.85 421.513C457.472 421.194 457.275 420.707 457.326 420.213C457.362 419.388 457.79 418.629 458.476 418.172C459.348 417.512 460.315 416.989 461.344 416.619C462.538 416.169 463.773 415.838 465.032 415.63C466.236 415.417 467.455 415.304 468.677 415.294C469.237 415.293 469.797 415.336 470.351 415.421C470.848 415.491 471.329 415.648 471.772 415.884C472.173 416.093 472.512 416.403 472.757 416.784C473.008 417.225 473.131 417.728 473.111 418.235V438.52C473.078 439.081 473.267 439.632 473.635 440.054C473.98 440.389 474.377 440.665 474.81 440.872C475.223 441.071 475.614 441.311 475.979 441.588C476.355 441.92 476.55 442.412 476.503 442.913C476.466 443.737 476.039 444.493 475.354 444.948C474.484 445.608 473.517 446.126 472.486 446.482C471.288 446.92 470.053 447.251 468.797 447.471C467.598 447.701 466.38 447.822 465.159 447.832C464.462 447.846 463.766 447.773 463.087 447.616C462.617 447.51 462.169 447.318 461.767 447.052C461.468 446.856 461.223 446.588 461.053 446.273C460.918 446.009 460.82 445.727 460.762 445.436C460.736 445.299 460.64 445.186 460.51 445.138C460.372 445.083 460.216 445.099 460.093 445.182C459.116 445.854 458.054 446.391 456.935 446.78C455.893 447.157 454.795 447.356 453.688 447.369C452.079 447.41 450.478 447.123 448.982 446.526C446.628 445.565 444.736 443.727 443.701 441.398C443.237 440.378 442.867 439.317 442.596 438.228C442.359 437.282 442.205 436.317 442.135 435.344C442.078 434.463 442.047 433.785 442.047 433.309V424.378C442.046 423.829 441.817 423.305 441.415 422.933C441.059 422.642 440.673 422.389 440.265 422.178C439.874 421.974 439.502 421.734 439.154 421.462C438.8 421.14 438.615 420.672 438.655 420.194C438.678 419.385 439.072 418.632 439.722 418.153C440.526 417.494 441.43 416.97 442.4 416.6C443.527 416.147 444.697 415.816 445.893 415.611C447.069 415.396 448.261 415.283 449.456 415.275ZM428.296 405.868C428.606 406.054 428.864 406.316 429.047 406.629C429.212 406.92 429.319 407.241 429.363 407.573C429.399 407.88 429.418 408.189 429.42 408.499V414.001C429.405 414.201 429.484 414.396 429.635 414.527C429.77 414.653 429.949 414.721 430.134 414.717H434.492C435.074 414.7 435.636 414.93 436.04 415.351C436.453 415.768 436.681 416.335 436.671 416.923V417.893C436.681 418.481 436.453 419.048 436.04 419.465C435.636 419.887 435.074 420.117 434.492 420.099H430.134C429.946 420.096 429.765 420.172 429.635 420.308C429.49 420.451 429.412 420.649 429.42 420.853V434.165C429.439 435.171 429.928 436.11 430.74 436.701C431.123 436.982 431.55 437.196 432.003 437.335C432.476 437.492 432.971 437.571 433.469 437.569C434.205 437.595 434.94 437.494 435.642 437.271C436.093 437.127 436.519 436.913 436.905 436.637C437.152 436.446 437.382 436.234 437.593 436.003C437.744 435.828 437.963 435.727 438.193 435.725C438.415 435.725 438.705 435.915 439.072 436.295C439.473 436.8 439.667 437.439 439.615 438.083C439.59 439.092 439.355 440.085 438.926 440.999C438.424 442.109 437.719 443.115 436.848 443.965C435.851 444.942 434.682 445.725 433.399 446.273C431.87 446.921 430.221 447.236 428.561 447.198C427.043 447.205 425.539 446.905 424.139 446.317C422.774 445.746 421.525 444.928 420.457 443.902C419.398 442.88 418.541 441.667 417.93 440.327C417.3 438.965 416.978 437.48 416.989 435.978V420.891C416.997 420.689 416.921 420.492 416.781 420.346C416.633 420.205 416.435 420.129 416.231 420.137H415.353C414.792 420.147 414.25 419.935 413.843 419.548C413.431 419.164 413.179 418.639 413.136 418.077V417.151C413.172 416.308 413.432 415.49 413.888 414.781C414.447 413.854 415.108 412.993 415.858 412.213C416.706 411.324 417.616 410.496 418.581 409.735C419.547 408.965 420.559 408.256 421.613 407.611C422.549 407.039 423.529 406.541 424.544 406.122C425.291 405.786 426.094 405.595 426.912 405.558C427.393 405.532 427.871 405.639 428.296 405.868ZM511.718 438.152C511.667 438.734 511.857 439.312 512.242 439.75C512.587 440.085 512.984 440.361 513.417 440.568C513.829 440.767 514.221 441.007 514.585 441.284C514.962 441.615 515.157 442.108 515.11 442.609C515.072 443.432 514.645 444.189 513.96 444.643C513.089 445.301 512.122 445.819 511.092 446.177C509.894 446.616 508.66 446.947 507.403 447.166C506.204 447.395 504.986 447.513 503.765 447.521C503.197 447.524 502.629 447.484 502.066 447.401C501.566 447.329 501.084 447.164 500.645 446.913C500.251 446.686 499.914 446.371 499.659 445.994C499.39 445.559 499.258 445.053 499.28 444.542C499.286 444.353 499.179 444.179 499.009 444.098C498.839 444.001 498.626 444.027 498.485 444.162C497.986 444.529 497.487 444.891 497 445.258C496.477 445.641 495.916 445.971 495.326 446.241C494.633 446.559 493.909 446.805 493.166 446.976C492.219 447.189 491.25 447.289 490.279 447.274C488.584 447.262 486.913 446.875 485.384 446.139C483.754 445.379 482.282 444.317 481.045 443.008C479.743 441.624 478.7 440.016 477.969 438.26C477.172 436.35 476.772 434.296 476.794 432.225C476.78 430.124 477.151 428.038 477.886 426.07C478.577 424.212 479.622 422.507 480.963 421.05C482.317 419.604 483.947 418.446 485.757 417.646C487.739 416.782 489.881 416.35 492.042 416.378C493.325 416.35 494.604 416.528 495.832 416.904C496.762 417.206 497.648 417.632 498.466 418.172C498.621 418.276 498.821 418.287 498.987 418.2C499.153 418.113 499.258 417.942 499.261 417.754V414.812C499.315 414.23 499.125 413.652 498.737 413.215C498.393 412.882 497.999 412.606 497.569 412.397C497.154 412.2 496.76 411.96 496.394 411.681C496.016 411.35 495.821 410.857 495.87 410.356C495.907 409.531 496.337 408.774 497.025 408.321C497.894 407.661 498.862 407.143 499.893 406.787C501.099 406.352 502.342 406.029 503.607 405.824C504.804 405.608 506.017 405.493 507.233 405.481C507.8 405.481 508.365 405.523 508.926 405.608C509.43 405.682 509.919 405.838 510.372 406.071C510.773 406.283 511.113 406.595 511.358 406.977C511.608 407.416 511.731 407.917 511.711 408.423L511.718 438.152ZM495.396 439.553C495.997 439.569 496.593 439.439 497.133 439.173C497.597 438.936 498.009 438.608 498.346 438.209C498.674 437.807 498.917 437.341 499.059 436.84C499.208 436.342 499.285 435.826 499.287 435.306V428.416C499.287 428.048 499.287 427.541 499.287 426.882C499.271 426.21 499.158 425.544 498.952 424.904C498.744 424.252 498.369 423.667 497.866 423.205C497.208 422.682 496.378 422.427 495.541 422.489C494.921 422.5 494.32 422.706 493.823 423.078C493.21 423.528 492.696 424.1 492.313 424.758C491.822 425.605 491.456 426.519 491.227 427.471C490.936 428.66 490.796 429.88 490.81 431.103C490.795 432.296 490.914 433.487 491.164 434.653C491.354 435.588 491.686 436.488 492.149 437.322C492.504 437.981 493.005 438.55 493.615 438.983C494.137 439.349 494.758 439.548 495.396 439.553ZM534.621 441.651C534.995 441.782 535.348 441.965 535.67 442.197C535.934 442.407 536.165 442.655 536.358 442.932C536.577 443.262 536.687 443.652 536.674 444.048C536.697 444.73 536.385 445.381 535.84 445.791C535.183 446.272 534.432 446.609 533.636 446.78C532.598 447.021 531.541 447.175 530.478 447.242C529.29 447.327 528.069 447.369 526.814 447.369C525.5 447.369 524.288 447.325 523.068 447.242C522.017 447.175 520.974 447.021 519.948 446.78C519.172 446.613 518.443 446.275 517.813 445.791C517.287 445.369 516.992 444.722 517.017 444.048C517.003 443.623 517.12 443.205 517.352 442.85C517.549 442.55 517.805 442.293 518.104 442.095C518.459 441.876 518.838 441.699 519.234 441.569C519.646 441.355 519.987 441.027 520.22 440.625C520.457 440.224 520.579 439.766 520.573 439.3V424.34C520.632 423.752 520.445 423.166 520.055 422.723C519.706 422.402 519.317 422.125 518.9 421.899C518.497 421.686 518.112 421.44 517.75 421.164C517.374 420.835 517.178 420.344 517.226 419.845C517.261 419.018 517.691 418.258 518.382 417.804C519.251 417.144 520.218 416.626 521.249 416.27C522.445 415.837 523.678 415.514 524.932 415.307C526.135 415.091 527.354 414.978 528.576 414.971C529.143 414.968 529.709 415.009 530.269 415.091C530.767 415.165 531.25 415.321 531.697 415.554C532.092 415.771 532.428 416.082 532.676 416.461C532.945 416.895 533.077 417.401 533.055 417.912V439.3C533.053 439.794 533.198 440.277 533.472 440.688C533.757 441.111 534.156 441.445 534.621 441.651ZM532.663 407.611C532.666 408.355 532.5 409.09 532.177 409.76C531.862 410.425 531.415 411.019 530.863 411.503C530.279 412.006 529.612 412.403 528.892 412.676C527.355 413.268 525.654 413.268 524.117 412.676C523.399 412.404 522.734 412.007 522.153 411.503C521.598 411.019 521.149 410.426 520.832 409.76C520.512 409.09 520.347 408.355 520.352 407.611C520.347 406.878 520.511 406.153 520.832 405.494C521.151 404.835 521.6 404.249 522.153 403.77C522.735 403.266 523.399 402.868 524.117 402.591C525.656 402.008 527.354 402.008 528.892 402.591C529.611 402.869 530.277 403.268 530.863 403.77C531.413 404.249 531.86 404.836 532.177 405.494C532.5 406.153 532.667 406.877 532.663 407.611ZM554.512 414.882C556.901 414.863 559.273 415.293 561.504 416.15C563.573 416.942 565.471 418.126 567.094 419.636C568.671 421.124 569.937 422.91 570.821 424.891C572.632 429.037 572.632 433.753 570.821 437.899C569.938 439.868 568.671 441.64 567.094 443.109C565.466 444.61 563.569 445.786 561.504 446.577C557.006 448.259 552.055 448.259 547.558 446.577C545.494 445.788 543.598 444.611 541.974 443.109C540.395 441.641 539.128 439.869 538.247 437.899C536.428 433.755 536.428 429.035 538.247 424.891C539.129 422.908 540.396 421.122 541.974 419.636C543.594 418.125 545.49 416.941 547.558 416.15C549.777 415.297 552.135 414.867 554.512 414.882ZM554.512 441.569C555.259 441.571 555.978 441.285 556.521 440.77C557.165 440.158 557.679 439.421 558.03 438.602C558.484 437.576 558.807 436.496 558.99 435.389C559.223 434.07 559.335 432.734 559.325 431.395C559.334 430.05 559.222 428.707 558.99 427.383C558.806 426.263 558.483 425.17 558.03 424.131C557.682 423.305 557.168 422.561 556.521 421.944C555.978 421.429 555.259 421.143 554.512 421.145C553.777 421.148 553.072 421.434 552.541 421.944C551.898 422.563 551.386 423.307 551.038 424.131C550.583 425.17 550.258 426.263 550.071 427.383C549.843 428.708 549.731 430.05 549.737 431.395C549.73 432.734 549.842 434.07 550.071 435.389C550.257 436.497 550.581 437.577 551.038 438.602C551.389 439.419 551.9 440.156 552.541 440.77C553.072 441.28 553.777 441.566 554.512 441.569ZM584.825 422.489C584.835 423.459 585.363 424.35 586.208 424.822C587.295 425.507 588.454 426.071 589.663 426.501C591.047 427.021 592.544 427.566 594.167 428.143C595.741 428.695 597.25 429.42 598.664 430.305C600.027 431.157 601.203 432.278 602.12 433.601C603.087 435.093 603.571 436.849 603.503 438.628C603.504 439.855 603.209 441.064 602.644 442.152C602.018 443.334 601.13 444.355 600.048 445.138C598.71 446.093 597.212 446.799 595.626 447.223C593.586 447.772 591.479 448.032 589.366 447.997C588.419 447.997 587.377 447.952 586.246 447.87C585.105 447.784 583.972 447.617 582.854 447.369C581.734 447.12 580.636 446.781 579.57 446.355C578.551 445.962 577.603 445.403 576.765 444.701C575.959 444.018 575.296 443.182 574.813 442.241C574.304 441.194 574.053 440.04 574.081 438.875C574.081 438.736 574.112 438.431 574.169 437.956C574.238 437.426 574.401 436.913 574.649 436.441C574.945 435.872 575.38 435.388 575.912 435.034C576.615 434.581 577.441 434.36 578.275 434.4C579.121 434.395 579.956 434.598 580.707 434.989C581.479 435.394 582.201 435.888 582.86 436.46C583.546 437.054 584.196 437.689 584.806 438.362L586.524 440.263C586.991 440.789 587.496 441.281 588.034 441.734C588.411 442.087 588.901 442.296 589.417 442.323C590.168 442.33 590.911 442.166 591.59 441.842C592.184 441.628 592.584 441.068 592.594 440.434C592.602 439.75 592.322 439.095 591.824 438.628C591.211 438.058 590.511 437.589 589.752 437.24C588.796 436.785 587.815 436.385 586.815 436.042C585.728 435.661 584.612 435.249 583.467 434.805C582.323 434.356 581.205 433.841 580.119 433.265C579.05 432.706 578.063 431.999 577.188 431.167C575.306 429.389 574.274 426.888 574.352 424.295C574.354 423.075 574.649 421.872 575.211 420.79C575.831 419.599 576.72 418.57 577.807 417.785C579.144 416.829 580.642 416.123 582.229 415.7C584.269 415.151 586.376 414.891 588.488 414.926C590.023 414.936 591.555 415.048 593.074 415.262C594.641 415.474 596.166 415.925 597.597 416.6C598.972 417.242 600.177 418.199 601.115 419.395C602.117 420.756 602.647 422.408 602.625 424.099C602.61 424.367 602.581 424.633 602.536 424.898C602.363 425.936 601.722 426.837 600.799 427.338C600.069 427.71 599.255 427.882 598.437 427.839C597.529 427.856 596.629 427.677 595.797 427.313C595.029 426.972 594.316 426.519 593.681 425.969C593.068 425.438 592.501 424.854 591.988 424.226L590.56 422.482C590.182 421.996 589.759 421.546 589.297 421.139C588.953 420.816 588.504 420.629 588.034 420.613C587.28 420.606 586.535 420.77 585.854 421.094C585.255 421.298 584.844 421.854 584.825 422.489Z" fill="white"></path>
</g>
<mask id="mask1_2409_1396" style="mask-type:luminance" maskUnits="userSpaceOnUse" x="290" y="170" width="148" height="100">
<path d="M438 170H290V270H438V170Z" fill="white"></path>
</mask>
<g mask="url(#mask1_2409_1396)">
<path d="M303.219 171.396C303.219 170.886 302.335 170.682 301.927 170.682C301.689 170.682 301.451 170.75 301.247 170.886C300.771 171.124 300.193 171.26 299.751 171.6C298.765 172.382 298.187 176.768 297.269 177.618C297.167 177.516 297.065 177.414 297.031 177.312C296.793 176.836 296.691 176.258 296.453 175.782C295.773 174.218 295.093 172.654 294.345 171.124C294.175 170.784 294.073 170.614 293.665 170.614C292.917 170.614 290.469 170.512 290.469 171.532C290.469 172.756 294.209 178.672 294.923 179.896C295.263 180.508 295.365 181.052 295.841 181.63C295.909 181.698 295.943 181.8 295.943 181.902C295.943 182.242 295.875 182.548 295.841 182.888C295.637 185.506 295.331 188.124 295.229 190.742V191.082C295.229 191.354 295.229 191.728 295.569 191.728C296.011 191.728 298.017 190.81 298.017 190.368C298.017 190.096 297.813 189.892 297.813 189.62C297.813 189.586 297.813 189.552 297.813 189.518C298.119 188.906 298.153 188.532 298.221 187.852C298.459 185.778 298.629 183.67 298.833 181.596C298.901 180.95 298.901 180.712 299.377 180.236C299.479 180.168 299.513 180.066 299.581 179.93C299.955 179.25 300.465 178.536 300.771 177.822C301.553 176.122 302.335 174.422 303.015 172.722C303.151 172.348 303.219 171.804 303.219 171.396ZM313.385 180.474C313.385 181.154 313.385 181.868 313.385 182.582C313.385 185.064 313.419 186.764 311.719 188.77C311.515 189.042 310.801 190.266 310.529 190.266C310.393 190.266 310.223 190.062 310.121 189.926C309.611 189.314 309.237 188.532 308.965 187.75C308.829 187.41 308.319 183.058 308.319 182.514C308.319 181.868 308.455 181.256 308.455 180.61C308.455 180.474 308.421 180.338 308.421 180.236C308.421 179.352 308.897 178.502 308.897 177.686C308.897 177.584 308.863 177.448 308.863 177.346C308.863 176.87 309.849 174.66 310.291 174.66C310.393 174.66 310.529 174.728 310.631 174.762C312.841 175.816 313.215 178.264 313.351 180.44L313.385 180.474ZM315.833 181.936C315.833 178.468 315.255 175.306 312.977 172.518C312.331 171.702 311.957 171.396 310.869 171.396C307.401 171.396 305.259 176.734 304.953 179.624C304.783 180.984 304.715 182.446 304.715 183.84C304.715 184.69 304.885 185.608 304.987 186.492C305.191 188.6 306.993 192.578 309.509 192.578C309.985 192.578 310.495 192.442 311.005 192.374C312.535 192.204 313.487 191.184 314.235 189.892C314.269 189.824 314.303 189.722 314.303 189.654C314.303 189.212 314.337 188.77 314.779 188.498C315.493 187.478 315.833 183.296 315.833 181.936ZM329.637 178.604C329.637 176.938 329.739 173.13 329.433 171.668C329.297 171.09 329.127 170.784 328.481 170.784C327.529 170.784 326.917 170.682 326.815 171.804C326.645 173.266 326.543 174.728 326.543 176.19C326.543 177.89 326.611 179.624 326.543 181.324C326.509 182.956 326.271 184.588 326.067 186.22C325.931 187.342 325.421 188.362 324.843 189.314C324.639 189.688 324.265 190.096 323.823 190.096C323.517 190.096 323.279 189.926 323.075 189.722C322.191 188.838 321.409 187.818 321.409 186.526C321.409 184.86 321.375 183.194 321.375 181.494C321.375 178.604 321.851 175.714 321.851 172.79C321.851 172.144 321.885 170.886 320.967 170.886C320.423 170.886 320.219 171.362 319.845 171.362C319.675 171.362 319.505 171.294 319.335 171.294C318.893 171.294 318.655 171.566 318.553 171.974C318.315 172.858 318.315 180.44 318.315 181.902C318.315 184.078 318.485 186.288 318.995 188.43C319.471 190.538 321.409 191.898 323.585 191.898C323.823 191.898 324.095 191.796 324.333 191.796C324.469 191.796 324.605 191.83 324.741 191.83C325.319 191.83 326.033 190.912 326.509 190.538C327.699 189.518 328.175 188.192 328.549 186.73C329.025 184.86 329.569 182.548 329.637 180.644C329.637 179.964 329.637 179.284 329.637 178.604ZM343.067 180.474C343.135 180.474 343.169 180.542 343.203 180.61C343.339 180.78 344.359 184.588 344.359 184.86C344.359 185.234 343.713 185.132 343.475 185.132V185.166C343.101 185.132 342.013 185.166 342.013 184.656C342.013 184.52 342.863 180.678 342.897 180.644C342.931 180.576 342.965 180.508 343.067 180.474ZM348.405 190.028C348.405 189.552 348.371 189.076 348.269 188.634C348.201 188.294 347.827 188.056 347.827 187.716C347.827 187.614 347.861 187.512 347.895 187.41C347.147 184.656 346.229 181.97 345.345 179.216C344.665 177.04 344.019 174.864 343.271 172.688C343.101 172.212 342.693 171.498 342.115 171.498C341.809 171.498 341.639 171.77 341.537 171.974C341.265 172.518 340.959 173.164 340.789 173.708C340.075 176.258 339.701 179.046 339.157 181.63L337.899 187.988C337.729 188.838 337.253 190.708 337.253 191.456C337.253 192.102 337.933 192.612 338.545 192.612C338.783 192.612 339.021 192.476 339.259 192.476C339.905 192.476 340.381 192.204 340.381 191.456C340.381 191.252 340.313 191.048 340.245 190.844C340.517 190.81 340.653 190.64 340.687 190.368C340.789 189.79 341.401 186.594 341.979 186.594C342.727 186.594 343.509 186.798 344.223 186.798C344.631 186.798 344.801 186.798 344.937 187.206C345.107 187.75 345.753 189.688 345.821 190.062C345.957 191.082 346.671 191.932 347.759 191.932C348.371 191.932 348.405 190.47 348.405 190.028ZM357.551 175.646C357.551 178.128 356.429 179.386 354.117 180.168C354.015 180.168 353.913 180.236 353.811 180.236C353.539 180.236 353.573 179.76 353.573 179.556V176.088L353.607 175.204C353.607 174.694 353.607 174.694 354.117 174.626C354.797 174.49 355.579 174.252 356.259 174.252C356.905 174.252 357.551 175.068 357.551 175.646ZM361.121 191.728C361.121 191.592 361.053 191.422 360.985 191.286C360.271 190.13 360.067 188.872 359.693 187.614C359.387 186.526 359.149 185.438 358.877 184.35C358.571 183.296 358.197 182.242 357.891 181.188C357.823 181.052 357.789 180.882 357.789 180.746C357.789 180.134 360.339 179.59 360.339 176.156C360.339 174.388 359.013 171.498 356.973 171.498C356.667 171.498 356.327 171.566 356.021 171.566C355.715 171.566 355.409 171.498 355.103 171.498C353.947 171.498 352.961 172.144 351.839 172.212C351.125 172.246 350.649 172.586 350.649 173.3C350.649 176.156 350.649 179.012 350.649 181.834H350.717V184.52C350.717 186.798 350.479 189.178 351.023 191.388C351.125 191.728 351.295 192.068 351.737 192.068C351.839 192.068 351.907 192.068 352.009 192.034C352.179 192.034 352.349 192.102 352.519 192.102C353.097 192.102 353.505 191.66 353.539 191.116C353.675 189.178 353.743 187.206 353.743 185.268C353.743 184.486 353.709 183.67 353.709 182.888C353.709 182.582 353.845 182.446 354.117 182.378C354.287 182.31 355.069 181.97 355.171 181.97C355.307 181.97 355.375 182.106 355.443 182.242C356.123 183.942 356.565 185.812 357.109 187.58C357.313 188.158 357.551 188.736 357.687 189.382C357.823 190.232 358.741 192.612 359.761 192.612C360.305 192.612 361.121 192.476 361.121 191.728ZM372.647 172.552C372.647 171.192 370.505 171.362 369.621 171.294C369.247 171.26 368.873 171.192 368.499 171.192C367.275 171.192 366.051 171.294 364.861 171.362C364.419 171.362 364.181 171.498 364.045 171.906C363.705 172.96 363.739 174.116 363.671 175.17C363.501 177.618 363.297 180.1 363.297 182.548C363.297 183.704 363.263 189.28 363.399 189.79C363.773 190.334 363.467 192.238 364.453 192.238C364.623 192.238 364.793 192.17 364.963 192.17C366.561 192.068 368.261 191.966 369.893 191.966C370.267 191.966 370.539 192.238 370.947 192.238C371.389 192.238 372.307 192.068 372.307 191.524C372.307 191.354 372.239 191.218 372.239 191.082C372.239 190.776 372.511 190.64 372.511 190.3C372.511 189.518 371.389 189.586 370.879 189.586C370.437 189.586 370.029 189.654 369.587 189.62C368.669 189.518 367.751 189.314 366.833 189.178C366.493 189.11 366.323 189.144 366.323 188.736C366.323 187.172 366.493 185.608 366.561 184.044C366.595 183.33 366.629 182.582 366.663 181.868C366.697 181.562 366.799 181.46 367.105 181.46C367.819 181.46 368.533 181.664 369.247 181.664C369.723 181.664 370.233 181.256 370.233 180.746C370.233 179.046 369.587 178.842 368.091 178.808H367.275C366.731 178.808 366.697 178.808 366.697 178.264C366.629 176.904 366.629 175.544 366.629 174.184C366.629 173.98 366.629 173.844 366.867 173.81C367.309 173.776 367.751 173.742 368.193 173.742C368.567 173.742 368.941 173.844 369.315 173.844C370.063 173.844 370.641 173.334 371.355 173.334C371.525 173.334 371.695 173.402 371.831 173.402C372.239 173.402 372.647 172.96 372.647 172.552ZM390.667 190.708C390.837 190.708 390.803 190.436 390.837 190.334C391.007 188.634 391.143 186.9 391.313 185.2C391.653 181.426 391.823 177.618 391.823 173.844C391.823 173.232 391.857 171.09 390.973 171.09C390.735 171.09 390.565 171.226 390.327 171.226C390.089 171.226 389.885 171.056 389.647 171.056C389.341 171.056 389.171 171.328 389.069 171.6C388.695 172.45 388.627 176.292 388.525 177.482C388.491 177.754 388.457 177.924 388.151 177.924C386.825 177.924 385.533 177.89 384.207 178.128C384.037 178.162 383.833 178.196 383.629 178.196C383.289 178.196 383.289 177.924 383.289 177.618C383.289 175.646 383.493 173.674 383.493 171.702C383.493 171.26 383.187 170.172 382.609 170.172C382.269 170.172 381.963 170.41 381.555 170.41C380.739 170.41 380.433 170.682 380.331 171.498C379.889 175.306 380.025 179.046 379.923 182.854C379.923 183.398 379.923 183.942 379.923 184.486C379.923 186.798 379.991 189.144 380.161 191.49C380.195 192.068 380.569 192.612 381.181 192.612C381.759 192.612 383.051 192.102 383.051 191.422C383.051 190.946 382.711 190.572 382.507 190.164C382.677 190.198 382.983 190.402 383.119 190.402C383.255 190.402 383.255 189.212 383.289 188.974C383.357 187.988 383.425 187.104 383.425 186.118C383.425 184.792 383.425 183.466 383.425 182.174C383.425 181.426 383.561 181.426 384.275 181.324C385.533 181.12 386.791 181.052 388.049 181.052C388.287 181.052 388.321 181.188 388.321 181.426C388.321 184.214 387.913 187.036 387.913 189.858C387.913 190.402 388.083 192.544 388.831 192.544C389.341 192.544 390.565 192.34 390.565 191.694C390.565 191.422 390.361 190.878 390.259 190.606C390.395 190.64 390.531 190.708 390.667 190.708ZM403.825 172.552C403.825 171.192 401.683 171.362 400.799 171.294C400.425 171.26 400.051 171.192 399.677 171.192C398.453 171.192 397.229 171.294 396.039 171.362C395.597 171.362 395.359 171.498 395.223 171.906C394.883 172.96 394.917 174.116 394.849 175.17C394.679 177.618 394.475 180.1 394.475 182.548C394.475 183.704 394.441 189.28 394.577 189.79C394.951 190.334 394.645 192.238 395.631 192.238C395.801 192.238 395.971 192.17 396.141 192.17C397.739 192.068 399.439 191.966 401.071 191.966C401.445 191.966 401.717 192.238 402.125 192.238C402.567 192.238 403.485 192.068 403.485 191.524C403.485 191.354 403.417 191.218 403.417 191.082C403.417 190.776 403.689 190.64 403.689 190.3C403.689 189.518 402.567 189.586 402.057 189.586C401.615 189.586 401.207 189.654 400.765 189.62C399.847 189.518 398.929 189.314 398.011 189.178C397.671 189.11 397.501 189.144 397.501 188.736C397.501 187.172 397.671 185.608 397.739 184.044C397.773 183.33 397.807 182.582 397.841 181.868C397.875 181.562 397.977 181.46 398.283 181.46C398.997 181.46 399.711 181.664 400.425 181.664C400.901 181.664 401.411 181.256 401.411 180.746C401.411 179.046 400.765 178.842 399.269 178.808H398.453C397.909 178.808 397.875 178.808 397.875 178.264C397.807 176.904 397.807 175.544 397.807 174.184C397.807 173.98 397.807 173.844 398.045 173.81C398.487 173.776 398.929 173.742 399.371 173.742C399.745 173.742 400.119 173.844 400.493 173.844C401.241 173.844 401.819 173.334 402.533 173.334C402.703 173.334 402.873 173.402 403.009 173.402C403.417 173.402 403.825 172.96 403.825 172.552ZM412.733 175.646C412.733 178.128 411.611 179.386 409.299 180.168C409.197 180.168 409.095 180.236 408.993 180.236C408.721 180.236 408.755 179.76 408.755 179.556V176.088L408.789 175.204C408.789 174.694 408.789 174.694 409.299 174.626C409.979 174.49 410.761 174.252 411.441 174.252C412.087 174.252 412.733 175.068 412.733 175.646ZM416.303 191.728C416.303 191.592 416.235 191.422 416.167 191.286C415.453 190.13 415.249 188.872 414.875 187.614C414.569 186.526 414.331 185.438 414.059 184.35C413.753 183.296 413.379 182.242 413.073 181.188C413.005 181.052 412.971 180.882 412.971 180.746C412.971 180.134 415.521 179.59 415.521 176.156C415.521 174.388 414.195 171.498 412.155 171.498C411.849 171.498 411.509 171.566 411.203 171.566C410.897 171.566 410.591 171.498 410.285 171.498C409.129 171.498 408.143 172.144 407.021 172.212C406.307 172.246 405.831 172.586 405.831 173.3C405.831 176.156 405.831 179.012 405.831 181.834H405.899V184.52C405.899 186.798 405.661 189.178 406.205 191.388C406.307 191.728 406.477 192.068 406.919 192.068C407.021 192.068 407.089 192.068 407.191 192.034C407.361 192.034 407.531 192.102 407.701 192.102C408.279 192.102 408.687 191.66 408.721 191.116C408.857 189.178 408.925 187.206 408.925 185.268C408.925 184.486 408.891 183.67 408.891 182.888C408.891 182.582 409.027 182.446 409.299 182.378C409.469 182.31 410.251 181.97 410.353 181.97C410.489 181.97 410.557 182.106 410.625 182.242C411.305 183.942 411.747 185.812 412.291 187.58C412.495 188.158 412.733 188.736 412.869 189.382C413.005 190.232 413.923 192.612 414.943 192.612C415.487 192.612 416.303 192.476 416.303 191.728ZM427.829 172.552C427.829 171.192 425.687 171.362 424.803 171.294C424.429 171.26 424.055 171.192 423.681 171.192C422.457 171.192 421.233 171.294 420.043 171.362C419.601 171.362 419.363 171.498 419.227 171.906C418.887 172.96 418.921 174.116 418.853 175.17C418.683 177.618 418.479 180.1 418.479 182.548C418.479 183.704 418.445 189.28 418.581 189.79C418.955 190.334 418.649 192.238 419.635 192.238C419.805 192.238 419.975 192.17 420.145 192.17C421.743 192.068 423.443 191.966 425.075 191.966C425.449 191.966 425.721 192.238 426.129 192.238C426.571 192.238 427.489 192.068 427.489 191.524C427.489 191.354 427.421 191.218 427.421 191.082C427.421 190.776 427.693 190.64 427.693 190.3C427.693 189.518 426.571 189.586 426.061 189.586C425.619 189.586 425.211 189.654 424.769 189.62C423.851 189.518 422.933 189.314 422.015 189.178C421.675 189.11 421.505 189.144 421.505 188.736C421.505 187.172 421.675 185.608 421.743 184.044C421.777 183.33 421.811 182.582 421.845 181.868C421.879 181.562 421.981 181.46 422.287 181.46C423.001 181.46 423.715 181.664 424.429 181.664C424.905 181.664 425.415 181.256 425.415 180.746C425.415 179.046 424.769 178.842 423.273 178.808H422.457C421.913 178.808 421.879 178.808 421.879 178.264C421.811 176.904 421.811 175.544 421.811 174.184C421.811 173.98 421.811 173.844 422.049 173.81C422.491 173.776 422.933 173.742 423.375 173.742C423.749 173.742 424.123 173.844 424.497 173.844C425.245 173.844 425.823 173.334 426.537 173.334C426.707 173.334 426.877 173.402 427.013 173.402C427.421 173.402 427.829 172.96 427.829 172.552ZM436.469 268.269C436.248 268.379 435.945 268.471 435.618 268.531C435.143 268.788 434.596 268.94 434.174 268.962L414.06 269.995C413.302 270.035 411.913 269.853 412.062 268.76C412.204 267.74 413.659 267.132 414.55 267.086L429.925 266.296C424.944 263.979 420.137 261.301 415.572 258.232C395.903 245.008 380.695 225.455 373.044 202.971C372.506 201.387 376.936 200.126 377.497 201.774C379.643 208.084 382.363 214.196 385.674 219.979C396.268 238.481 412.317 253.656 431.393 263.07C429.355 257.368 428.526 251.308 429.063 245.213C429.249 243.11 433.791 242.544 433.584 244.906C432.949 252.093 434.272 259.428 437.5 265.893C438.003 266.899 437.431 267.794 436.469 268.269Z" fill="white"></path>
</g>
</g>
<defs>
<pattern id="pattern0_2409_1396" patternContentUnits="objectBoundingBox" width="1" height="1">
<use xlink:href="#image0_2409_1396" transform="scale(0.000694585 0.00111111)"></use>
</pattern>
<filter id="filter0_d_2409_1396" x="425.402" y="241" width="181.766" height="165.17" filterUnits="userSpaceOnUse" color-interpolation-filters="sRGB">
<feFlood flood-opacity="0" result="BackgroundImageFix"></feFlood>
<feColorMatrix in="SourceAlpha" type="matrix" values="0 0 0 0 0 0 0 0 0 0 0 0 0 0 0 0 0 0 127 0" result="hardAlpha"></feColorMatrix>
<feOffset dx="23" dy="32"></feOffset>
<feGaussianBlur stdDeviation="22"></feGaussianBlur>
<feColorMatrix type="matrix" values="0 0 0 0 0 0 0 0 0 0 0 0 0 0 0 0 0 0 0.5 0"></feColorMatrix>
<feBlend mode="normal" in2="BackgroundImageFix" result="effect1_dropShadow_2409_1396"></feBlend>
<feBlend mode="normal" in="SourceGraphic" in2="effect1_dropShadow_2409_1396" result="shape"></feBlend>
</filter>
<clipPath id="clip0_2409_1396">
<rect width="450" height="278" fill="white" transform="translate(268 170)"></rect>
</clipPath>
<image id="image0_2409_1396" width="1440" height="900" preserveAspectRatio="none"></image>
</defs>
</svg>